<svg xmlns="http://www.w3.org/2000/svg" viewBox="0 0 957 451.47"><defs><style>.cls-3{fill:#edebeb}.cls-7{fill:#cecbcc}.cls-19{fill:#545050}.cls-22{fill:#cfcdce}.cls-27{fill:#eeedee}.cls-30{fill:#f0f0f0}.cls-31{fill:#edecec}.cls-33{fill:#e7e5e6}.cls-35{fill:#d9d8d8}.cls-37{fill:#f7f6f6}.cls-42{fill:#b2b1b1}.cls-44{fill:#f4f2f3}.cls-45{fill:#464242}.cls-53{fill:#f3f1f2}.cls-54{fill:#a19e9f}.cls-56{fill:#f4f3f3}.cls-58{fill:#e8e6e7}.cls-59{fill:#e6e4e5}.cls-65{fill:#a8ce46}.cls-67{fill:#d5d3d4}.cls-71{fill:#f5f4f4}.cls-73{fill:#f6f4f5}.cls-77{fill:#504c4c}.cls-79{fill:#e0ddde}.cls-80{fill:#524f4f}.cls-81{fill:#eeeced}.cls-87{fill:#d3d1d1}.cls-90{fill:#eee}.cls-92{fill:#f0efef}.cls-95{fill:#d0d0d0}.cls-99{fill:#dad7d8}.cls-102{fill:#dfddde}.cls-105{fill:#bcbbbb}.cls-106{fill:#f4f4f4}.cls-110{fill:#e3e2e2}.cls-117{fill:#e4e4e4}.cls-118{fill:#ececec}.cls-120{fill:#3c3636}.cls-124{fill:#ededed}.cls-128{fill:#555050}.cls-132{fill:#f8f8f8}.cls-133{fill:#cdcbcc}.cls-135{fill:#ecebeb}.cls-136{fill:#f5f3f4}.cls-138{fill:#dbdada}.cls-141{fill:#f6f5f5}.cls-143{fill:#f7f7f7}.cls-145{fill:#eeeded}.cls-146{fill:#dcdadb}.cls-147{fill:#e4e1e2}.cls-148{fill:#f2f0f1}.cls-151{fill:#e9e8e8}</style></defs><g id="Layer_1" data-name="Layer 1"><path d="M401.45 329.19c2.27.19 27.72.58 37.63.83 5.37.58 10.85 1.14 16.25 1.49 1.68.12.18.96-.89.93-13.92.02-28.03-.21-41.82-.09-19.19.27-40.39 2.49-59.93.82-2.09-.05-.95-3.75.59-1.68.67 1 1.17.18 2.14.21.7-.08 1.81.37 2.6.38.38-.03-.04-.51-.6-.76-.28-.14-.66-.23-1.02-.33-1.1-.32-1.13-1.03.18-1.21 3.22-.46 6.62-.76 9.91-.86 10.65-.19 21.35-.24 32.03-.14.86-.04 2.22.16 2.82.39l.09.03h.02Z" style="fill:#302929"/><path d="M643.63 323.75c.56-.07.7.65 1.11.89 1.73.43 5.34.53 5.37 2.89 0 .52-.69 1.19-.94 1.81-.23.7.11 1.45-.07 2.14-.22 1.47-1.7 2.5-2.95 3.11-2.21 1.32-4.55 2.55-7.21 2.49-5.39.22-15.31-4.91-10.65-10.89.86-.93 2.18-1.92 3.46-2.35 1.92.07 3.81-.32 5.58-1.27 1.22-.1 5.15 1.1 6.19 1.17h.11Z" style="fill:#fbfbfb"/><path d="M221.57 325.39c1.38 4.8-8.09 2.57-10.8 1.44-.37-.17-3.94-2.9-1.52-2.42.74.16.76.14 1.37.27.83.22 2.85 1.42 3.58.2-.02-.34-.98-.23-1.17-.48-.27-.23-.35-.63-.65-.99-4.16-4.14-6.57-11.59-10.95-15.89-.39-.43-.05-.56.46-.62 12.65-1.07 17.14 7.71 19.65 18.32l.04.16Z" style="fill:#f3f3f3"/><path d="M602.28 331.64c.72.12 2.94 1.35 1.98 1.6-.42.06-.92 0-1.35.02-.52.05-1.06.28-1.66.3-.77.04-1.57-.08-2.29-.34.33 0 1.31.39 1.53.9 1.05 2.09 3.06 3.63 4.28 5.66 2.52 3.56 4.64 7.35 7.71 10.57.15.17.57.58.37.72-3.52.61-13.47-1.23-14.77-2.91-2.48-4.22-7.16-15.63-7.04-17.23 3.46-.44 7.62-.06 11.04.65z" class="cls-56"/><path d="M581.88 330.79c.82.19 1.26.29 1.9.7.7.29 2.67 2.46.66 2.22-.65-.1-1.29-.39-1.91-.56-1.29-.44-2.22.46-1.31 1.64 5.15 4.86 7.53 10.47 11.96 16.03.15.21.22.38.15.5-8.17 1.37-14.72-2.75-17.85-10.15-1.03-2.48-1.96-5.63-2.21-8.32-.04-.71 0-1.3.2-1.66.17-.33.58-.47.96-.57 2.33-.64 4.94-.52 7.27.12l.17.04Z" class="cls-141"/><path d="M346.44 330.21c.25.19.01.44-.47.58-3.32 1.02-6.63 1.47-10.05.83-3.62.11-7.33-.36-10.89.38-1.01.03-1.99-.43-2.98-.14-1.33.38-2.64-.34-3.97-.08-2.01.43-4.07.13-6.04-.1-2.19.45-4.57.2-6.82.48-.56.07-1.42.28-1.67.58-.18.33-.91.43-1.4.4-18.29.01-36.89-.69-55.25-.75-.85-.08-1.94-.73-.66-.86 33.31-3.14 67.41-2.78 100.11-1.39l.1.06Z" style="fill:#302a2a"/><path d="M223.55 306.62c14.01 4.12 13.31 7.35 17.27 20.02.4 1.22-1.4 1.85-2.39 2.01-3.65.35-7.88-.01-10.76-2.48-1.59-1.82.6-.79 1.42-.66.59.06 5.78 1 4.13-.32-4.95-4.24-7.61-9.31-10.27-15.07-1.08-1.72-3.25-4.02.48-3.51l.12.02Z" class="cls-71"/><path d="M485.93 330.83c1.05.15 4.62 1.09 2.26 1.91-.74.12-1.09.59-.93 1.3.23 1.01 1.2 1.2 1.97 1.72.54.35 1.15.91 1.57 1.4 3.25 3.79 5.11 9.94 8.69 13.77 1.02 1.01-.22 1.42-1.29 1.43-2.95-.07-5.49-.43-7.77-1.62-1.41-.86-2.38-2.07-3.47-3.35-1.95-2.88-5.76-5.9-6.36-8.72-.56-1.78-.67-3.76-.97-6.62-.02-.34-.06-.89.21-1.08 1.85-.37 3.99-.22 5.9-.17l.18.03Z" style="fill:#f2f1f1"/><path d="M561.62 331.59c.92.39 1.72 1.08 1.25 2.1-.18.41-.38.84-.24 1.18.1.3.42.53.71.77 5.16 3.89 6.84 10.82 11.17 15.48.32.42.64 1.3.04 1.57-14.03.23-17.96-9.53-19.97-21.87-.06-.44 0-.75.44-.75 2.07.35 4.39.97 6.41 1.45l.18.07z" class="cls-44"/><path d="M598.08 327.67c-1.12.21-3.34.38-4.75.47-.68.07-1.81-.08-2.13-.64-.2-.33-.09-.56 0-.94.88-2.95 2.59-6.85 4.03-9.97 3.12-7.18 10.43-9.95 17.92-9.27 1.7.1-1.31 2.54-1.73 3.09-1.21 1.19-2.51 2.33-3.65 3.57-2.49 2.59-3.19 6.05-5.94 9.23-.59.72-1.6 1.63-2.43 2.49-.79.78 1.82.65-1.15 1.91l-.15.04z" class="cls-106"/><path d="M573.17 328.44c-.51-1.66 1.67-7.19 2.9-10.66.43-1.06.67-1.74 1.22-2.68 2.91-4.97 10.62-10.79 16.48-8.42.42.19.51.47.16.85-4.5 4.44-6.87 11.57-11.54 15.76-.94.89-1.07 2.29-1.92 3.25-1.46 2.22-4.92 2.95-7.22 1.96z" class="cls-37"/><path d="M102.65 333.85c.15-1.41-2.24-1.25-2.86-1.77-.19-.16-.06-.3.29-.43 1.78-.63 9.38-.91 10.11-.42-1.2 4.53-2.92 10.49-6.12 15.72-.56.81-1.03 1.48-1.82 1.94-1.58.86-6.93 2.03-10.49 2.36-1.32.06-3.86.4-2.6-.73 3.28-3.19 5.03-7.48 7.77-11.04 1.53-2.18 3.95-3.56 5.69-5.5z" class="cls-71"/><path d="M535.16 307.33c.93-.19 1.96-.06 1.29 1.02-2.03 2.5-9.79 13.74-11.38 16.63-.17.32 0 .53.15.94.31.89-.89 1.63-1.62 1.99-2.76 1.24-5.26 1.69-6.41.81-1.72-1.57.24-4.47.77-6.32 1.16-4.2 4.53-11.5 8.06-13.51 2.6-1.38 6.19-1.1 8.98-1.53l.17-.03z" class="cls-56"/><path d="M139.4 327.57c-.67-.45-1.41-1.41-.15-1.45 1.3-.03.95-.98.47-1.7-1.57-2.06-3.17-4.15-5.37-7.05-3.56-4.68-7.66-10.04-8.13-10.68-.01-.03 0-.05.06-.06.07-.01.22 0 .43 0 2.97.27 7.08-1.02 9.49.83 3.1 3.02 6.6 6.76 7.87 10.07 1.1 2.78 2.52 6.46 3.14 9.18.22 2.83-6.16 1.29-7.68.91l-.13-.07z" class="cls-44"/><path d="M270.49 326.87c26.46-1.08 53.09-.13 79.49.73.94.2 1.32 1.36 1.12 2.43-.18 1.44-1.41 1.68-2.52 1.82-1.88.34-2.65-.09-2.43-1.98-.03-.23-.14-.36-.36-.37-.67.04-1.59.23-2.34.12-1.14-.09-1.55-.35-2.24-.4-2.15-.17-5.84-.45-8.43-.65-26.47 1.8-53.53.68-80.23 1.45-1.3.14-2.53-.56-3.84-.86-.38-.11-.84-.22-1.16-.42-.77-.52.21-1.25.87-1.34 6.86-1.51 14.9-.95 21.9-.53z" class="cls-73"/><path d="M202.62 330.87c.99 1.68.44 4.17-.16 5.96-2.4 6.32-5.12 12.28-11.85 14.53-1.83.59-4.41 1.24-6.33 1.2-.55-.03-.97-.15-1.13-.42-.22-.36.2-.89.49-1.2 3.75-3.74 4.65-9.64 8.93-12.79.72-1.23 1.78-2.1 2.71-3.17.39-.51-.03-1.75.03-2.37.04-2.07 2.89-1.38 3.94-2.33.92-.75 2.41-.27 3.24.45z" class="cls-53"/><path d="M184.96 326.23c1.74 3.8-5.23 3.02-7.72 1.61-.76-.54-.89-1.01.06-1.27 1.08-.35.76-1.47.1-2.15-.36-.37-.75-.27-1.19-.48-1.65-.92-2.12-3.35-3.57-4.52-.64-.67-1.65-.78-2.25-1.47-1.86-3.25-3.28-6.95-5.67-9.93-.33-.46-.07-.64.56-.71 13.77-1.02 16.01 8.15 19.62 18.73l.07.19Z" class="cls-106"/><path d="M463.18 319.8c.83-2.21 1.23-5 2.84-6.91 3.56-4.65 9.7-6.5 15.44-6.27.78.16.27.74-.21 1.02-.75.39-1.74 1.02-2.25 1.82-3.27 4.54-3.71 8.96-8.6 13.5-.62.51-1.01 1.2-1.38 1.79-.3.46-1.04.81-1.47 1.25-.07.13.24.14.69.17.98.03 2.75.44 1.89 1.66-.17.19-.41.16-.7.07-.51-.19-.98-.03-1.71.05-8.31 1.41-6.81-1.87-4.58-8.01l.05-.14z" class="cls-71"/><path d="M510.78 326.14c-3.37 1.95-7.76 2.49-11.65 2.37-.31-.03-.71-.08-.84-.39-.36-11.6 8.28-21.95 20.44-21.54 1.46.07-.74 1.66-.99 2.16-1.38 1.55-2.42 3.08-3.7 4.84-1.94 1.98-3.37 4.17-4.26 6.84-.47.93-1.56.61-2.27 1.08-1.86 1.29.91 2.83 2.32 2.93.34.04 1.09-.05 1.44-.09 1.38-.08.15 1.3-.35 1.69z" class="cls-56"/><path d="M471.07 331.58c.84.33 3.13 1.71 2.99 2.76-.27.61-2.65-.62-3.77-1.06-.93-.23-1.6.55-2.45-.02-.56-.34-.05-.2.41.23.53.48.53 1.14.93 1.62 2.19 2.06 4.03 4.07 5.9 6.43 1.68 2.72 3.77 6.9 5.36 9.71.53 1.11 1.22 1.58-.17 1.33-8.03-1.06-12.99-2.8-15.9-10.47-1.1-2.95-2.86-6.78-3-9.82.57-1.41 7.12-1.75 9.58-.75l.12.05Z" class="cls-53"/><path d="M88.72 320.8c.04 1.85 2.08 2.83 3.31 3.76.61.5.74 1.57.56 2.29-.22.89-1.19 1.22-2.02 1.27-1.1.13-2.11-.44-3.2-.22-.49.08-1.1.14-1.55-.05-.37-.15-.61-.42-.58-.79.13-.61.06-1.22-.55-1.55-6.77-4.43-10.96-8.89-17.07-13.98-.05-.19-.07-.19-.06-.6.08-.41.11-.31.2-.4.42-.07.77 0 1.39-.03 3.4.05 8.59-.1 10.3.06 4.1 1.08 7.37 7.25 9.22 10.1l.04.13h.01Z" class="cls-106"/><path d="M238.76 330.73c2.12.52 1.84 1.32 1.29 3.02-.49 1.98-.93 3.55-1.67 5.35-.7 1.56-1.9 4.24-2.55 5.71-.31.81-.59 1.1-1.26 1.77-.45.44-.95 1-1.42 1.27-.58.34-1.38.52-1.94.95-.65.41-.93 1.11-1.52 1.58-2.71 1.45-6.01 2.08-9.06 2.2 1.25-2.76 3.22-6.44 4.67-9.19 1.08-1.97 2.89-2.93 4.29-4.59.45-.59 1.23-1.64 1.62-2.14.59-.89 1.96-1.61 2.05-2.82-.11-1.74-2.5-.36-3.3 0-3.18 1.21-2.89-1.07-.39-1.89 1.57-.69 4.28-.82 5.73-1.21.4-.14.86-.5 1.52-.52.65-.05 1.24.24 1.78.45l.17.06Z" class="cls-56"/><path d="M409.5 326.88c14.87-.77 29.91-.51 44.76.36 1.22.2.42 1.2-.37 1.56-1.04.53-2.53.74-3.68.82-11.01.31-22.27.07-33.36-.36-19.29-1.03-39.02-.98-58.31.35-1.63.06-3.2.94-4.18 2.13-.52.67-1.46.68-2.26.59-.63-.09-.6-.51-.85-1.06-.53-.95-1.05-2.63-.3-3.54 19.06-1.22 39.03-1.52 58.37-.85z" class="cls-136"/><path d="M92 333.23c-3.6 9.67-12.74 17.67-23.69 15.34-.49-.12-.66-.33-.28-.7 5.18-4.46 8.95-12.12 16.11-13.45.48-.14 1-.24 1.32-.49.46-.36.5-1.29.41-1.76-.1-.44.1-.79.71-.96 1.67-.46 5.61.06 5.45 1.86l-.03.15Z" class="cls-71"/><path d="M617.65 330.92c.69.69-.96 1.14-1.36 1.58-.68 1.19.63 1.65 1.58 1.97 2.4.97 4.7 2.27 6.71 3.91 2.2 1.68 3.67 3.87 5.27 6.1.95 1.2 2.18 2.21 1.56 3.42-.75.85-2.92.61-4.17.48-7.74-.61-13.16-6.19-16.58-12.9-1.59-3.04-.86-4.57 3.14-4.66 1.29-.06 2.51-.19 3.74.04l.11.05Z" style="fill:#f6f5f6"/><path d="M162.97 331.39c2.66-.78 2.19 2.94 1.61 4.61-.66 2.17-1.4 4.53-2.19 6.79-1.63 6.79-8.74 9.19-15.18 9.09-.7-.02-.95-.56-.7-1.24.36-1.03 1.43-1.77 1.98-2.35 1.23-1 1.47-2.43 2.13-3.81 2.07-3.19 5.15-5.61 7.28-8.73.45-.84.2-1.97.65-2.86.6-1.39 1.91-2.04 3.48-1.62.24.06.52.1.77.12h.18Z" style="fill:#efedee"/><path d="M524.22 334.33c2.78 1.24 4.19 4.38 5.69 6.7.81 1.24 1.41 2.47 2.19 3.84.62 1.1 1.54 2.81 2.09 3.76.42.65 1.72 1.32 2.34 1.95.67.54 1.4 2.18-.08 1.97-7.55-1.29-12.26-1.33-15.18-9.07-.97-2.62-2.41-6.19-3.12-9.64-.16-1.19-.38-1.85.22-2.45 1.92-1.63 6.54.03 5.82 2.89v.03z" class="cls-53"/><path d="M221.48 333.2c-1.26 3.26-1.8 8.9-4.34 10.68-.26.2-.45.38-.65.7-.62.98-.84 2.25-1.85 2.91-.7.47-1.34 1.03-1.85 1.71-1.45 2.4-7.98 4.47-10.53 2.74-.28-.25-.39-.54-.16-.92 1.28-1.78 2.56-3.69 3.71-5.6 1.2-1.9 2.28-3.89 3.63-5.69.64-.79 1.52-.13 1.61.58a.5.5 0 0 1-.06-.09c-.75-1.68 2.2-4.5 3.7-5.88.61-.53-.28-1.14-.3-1.8-.1-.57.17-1.02.7-1.17 2.37-.61 7.17-.67 6.44 1.69l-.04.15h-.01Z" style="fill:#f4f3f4"/><path d="M147.24 306.59c3.76.52 7.5 1.87 10.75 3.8.83.57 1.57 1.31 2.04 2.21 1.06 2.22 2.37 4.26 3.51 6.37.78 2.69 1.34 5.52 1.31 8.35.05 1-.5.72-1.48.64-.63-.07-1.26-.14-1.65-.18-.82.05-4.45-.6-2-1.41.24-.11.26-.06.67-.38.41-.34.39-1.27.24-1.67-.24-.25-.52.39-.67.59-.47.71-.82.46-1.25-.18-.29-.44-.61-.93-1.08-1.19-4.44-2.44-8.19-12.07-11.64-16.11-.65-.74.21-1 1.06-.86l.17.02z" class="cls-56"/><path d="M60.74 336.14c0-1.09.96-1.71 2.39-2 .53-.12.89-.49.72-1.07-.78-2.8-.92-4.64 2.08-5.08.55-.11.6 0 1.25-.37.58-.47 1.1-1.67 1.69-2.14.36-.34.63-.44.58 0-.6 2.95-8.03 2.9-10.9 2.43a.7.7 0 0 0-.39.05c-.62.56-.4 2.49-.4 3.42-.04.97.69 1.96-.26 2.71-.32.24-.74.52-1.16.38-1.21-.58-2.45-.98-3.76-1.47-1.56-.77-2.52-1.52-3.82-2.29-2.03-1.2.5-3.09 1.73-3.8 6.27-3.38 14.74-7.48 21.32-2.3 4.47 3.32 3.5 7.62-1.43 10.23-2.12 1.13-7.78 3.43-9.61 1.42l-.04-.11Z" class="cls-141"/><path d="M122.31 333.7c.37-.24.63-1.42.68-1.9.04-1 4.76-.73 5.2-.44.32.38-.11 1.24-.29 2.22-.95 3.52-2.18 7.81-4.54 10.7-3.27 5.47-7.72 7.6-14.35 7.61-.52-.02-.8-.2-.54-.7 1.9-3.07 3.9-6.21 6.32-8.92 1.83-1.37 2.96-2.93 3.51-4.83.37-.99 1.73-1.89 2.24-2.64.58-1 .21-1.92 1.68-1.08h.09z" class="cls-53"/><path d="M505.48 330.8c2.34.17 1.86 1.7.62 3.08-.28.33-.5.57-.52.73-.04.2.19.33.43.53 1.74 1.53 3.09 3.38 4.9 5.84 2.55 3.54 4.98 7.45 5.35 8.64.21.98-.43 1.93-1.54 1.97-3.76-.1-8.21-2.64-10.53-5.62-3.32-3.95-6.47-8.91-5.96-14.35.06-.44.26-.71.68-.77 1.99 0 4.43-.24 6.38-.06l.18.02Z" class="cls-106"/><path d="M560.02 314.21c3.82-5.53 6.25-8.8 14.39-7.75.29.04.96.1.99.38.02.11-.05.23-.16.38-3.76 3.75-6.16 7.97-9.28 12.16-1.74 1.72-3.45 3.5-4.96 5.57-.6 1.03-1.18 2.33-2.33 2.85-2.29 1.15-3.84-.83-3.19-3.27.51-2.03 1.59-3.73 3.05-7.16.54-1.14.93-2.17 1.41-3.04l.07-.11h.01Z" class="cls-141"/><path d="M112.12 312.93c-.44-.78-1.16-1.99-1.74-2.98-.68-1.18-1.37-2.3-1.56-2.71-.06-.22-.03-.39.15-.59 2.01-1.62 5.63.6 7.37 1.62 2.34 1.01 4.5 2.29 5.83 4.57.48 1.07.65 2.11 1.48 2.97 1.07.91 1.62 2.17 1.82 3.53.26 2.08.81 4.05 1.84 6.06.27.56.42 1.28.01 1.78-.93 1.21-4.62 1.15-5.22-.65-.05-.42.06-.89-.19-1.25-2.76-2.4-5.09-5.36-6.93-8.89-1.09-1.09-2.09-1.98-2.81-3.34l-.06-.11Z" style="fill:#f5f5f5"/><path d="M101.3 310.58c.94.63 1.64 1.71 2.1 2.87.48 1.02 1.35 1.72 2.3 2.36.86.9.99 2.54 1.5 3.66.48 1.63 1.33 2.75 1.86 4.46.35 1.15.91 2.84.07 3.68-.51.52-1.62.24-2.96.05-.46-.09-1.03-.22-1.39-.52s-.39-.73-.65-1.24c-.24-.51-.65-1.07-.75-1.53-.33-1.03.4-1.98 1.44-1.98.61.01.61-.34.12-.71-.21-.14-.37.02-.48.34-.13.38-.3.84-.57 1.11-.9.99-2.83 1.04-3.85.25-.63-.5-.72-.91-1.06-1.59-.5-.88-1.24-1.62-1.67-2.55-.59-.86-.55-2.14-1.24-2.92-.36-.25-.95-.27-1.27-.59-.38-.36-.69-.91-1.03-1.34-1.62-2-2.56-4.24-4.37-6.05-.15-.18-.23-.34-.19-.45 4-.99 8.44.57 11.96 2.6l.15.1h-.02Z" style="fill:#f6f6f6"/><path d="M140.21 333.72c1.31-1.99 4.39-3.78 5.75-2.61 1.09 1.08-.11 3.02-.45 4.26-2.13 7.52-1.75 12.31-10 15.44-1.22.48-2.92.34-4.07.13-3.5-.89-1.77-3.37.65-6.04.38-.45.97-.86 1.16-1.33.14-.34.15-.82.29-1.26.4-1.37 1.4-2.73 2.78-3.14.41-.14.91-.05 1.15-.26.11-.08.18-.22.23-.38.22-1.24.79-2.42 1.47-3.53.21-.53.27-1.08.9-1.21l.13-.07z" class="cls-73"/><path d="M56.67 334.71c-.33-.66-.14-1.83-.65-2.37-.48-.36-2.43-1.31-3.21-1.85-.11-.12.51-.13 1.34-.23 1.13-.23 1.96.13 2.15-.75.07-.37.21-1.13.24-1.46.03-.32-.18-.13-.56.24-.37.37-.74.76-1.13.75-.48 0-1.03-.47-1.08-.86-.1-1.04 1.26-1.72 2.14-1.96 2.96-.66 9.24 2.63 10.16-2.48.14-.41.24-.7.5-.7.68.05 1.05.93.61 1.56-.38.68-1.08 1.25-.81 1.45.12.11.44.1.77-.04.62-.22 2.95-2.6 2.65-.74-.27.7.15.68.7 1.02 1.03.92-1.5.95-1.72 1.43.47.43 1.76 1.06 2.41 1.49.39.23.75.44.96.57s.24.13.09.11c-.95-.21-1.84.95-2.65 1.57-1.15.81-1.04-.7-.97-1.43.04-.82-.19-.81-.9-.62-.75.18-1.8.31-2.62.07-.72-.23-.27.32-.11 1.22.42 1.74 1.18 4.5 1.17 4.78-.43.31-1.52.25-2.16.41-1.68.19-2.64.5-3.72.41-1.24-.22-2.66-.39-3.5-1.45l-.07-.13h-.03Z" style="fill:#fafafa"/><path d="M542.11 333.77c.16.12.34.2.5.42.98 1.98 2.8 3.6 4.56 4.95.56.44.7 1.12 1.15 1.75.6.73 1.23 1.37 1.7 2.16.59.86.95 1.86 1.55 2.7.36.42.73.85.88 1.48.17.6.27 1.2.17 1.71-.16.85-1.11 1.47-1.71 2-.57.27-1.38.09-1.94-.05-1.38-.31-2.66-.8-4-1.38-1.92-.7-3.02-1.84-3.01-3.77 0-.38-.01-.82-.18-1.14-.62-.97-1.45-1.87-2.07-2.87-1.05-2.04-2.33-4.15-3.13-6.48-.33-3.22 3.94-4.31 5.43-1.56z" class="cls-53"/><path d="M552.94 310.65c-2.25 3.19-4.26 6.68-6.6 9.85-1.73 1.71-3.45 3.32-5.03 4.92-.49.5-.27 1.32-.7 1.83-.23.28-.55.51-.88.66-2.32.93-3.77-.98-3.08-3.19 2.43-9.53 5.9-17.73 17.26-17.34 1.17 0 .37.61-.05 1.58-.4.75-.59 1.13-.85 1.58z" class="cls-56"/><path d="M199.57 322.21c1.71-.34 2.57 1.75 3.07 3.15.03.16.03.38.02.57 0 .3.59.26.72.5.74 1.06-1.11 1.52-2.07 1.54-1.22-.03-3.63.03-4.53-.61-.59-2 .35-4.91 2.68-5.14l.1-.02Z" class="cls-132"/><path d="M193.41 309.77c3.91 1.92 5.9 5.04 7.17 8.91.66 2.14.5 3.33-.51 3.52-.41.1-.68.26-1.08.64-2.63 2.82-4.03 2.18-5.31-.9-.69-.97-2.21-2.1-2.92-3.1-1.66-2.37-3.15-5.64-4.42-8.11-.16-.34-.81-.82-.9-1.44-.23-3.33 5.81-1.08 7.82.39z" class="cls-132"/><path d="M616.15 315.96c1.3-1.37 4.22-5.17 6.68-5.46h10.81c.49 0 .52-.03.24.33-2.29 2.98-5.22 5.56-8.05 8.01-.4.35-.49.37-1.14.77-1.14.62-2.66 1.75-3.72 2.17-2.99-.33-7.05-2.07-4.9-5.69l.08-.12Z" class="cls-143"/><path d="M486.66 311.37c1.24.73 1.19 2.58.59 4.87-.07.31-.22.78-.14 1.05.25.23.55.47.91.49 2.85.58 3.33 2.1 1.69 4.2-.73 1.33-1.82 2.92-2.85 4.05 0 .1.85-.24 1.73-.52 1.22-.42 2.01-.63 2.87-.98.57-.22 2.58-1.46 2.43-.25-1.3 4.5-9.55 4.28-13.41 4.28-.5 0-.95-.22-.86-.79.73-5.6 2.7-12.61 6.93-16.39h.11Z" class="cls-30"/><path d="M176.27 337.09c2.56 1.23 4.5 3.06 3.14 6.15-.38 6.4-9.32 9.47-14.8 8.65-.17-.09-.14-.26 0-.47 1.12-1.68 2.87-2.91 3.85-4.66.86-1.68 1.57-3.12 2.32-4.8 1.22-2.05 3.63-3.75 5.33-4.86h.16Z" class="cls-136"/><path d="M616.08 316.04c.18-.08.37.73.75 1.58.41.86.55 1.71.95 2.05.02.1.53-.34.93-.64.68-.4 1.07-.52 1.54-.06.45.52.54 1.52 1.04 1.65.43.13 1.15-.24 1.83-.62.31-.23 2.83-1.44 2.04-.49-2.9 2.64-5.56 4.16-8.69 6.6-.27.47.16 1.13-.1 1.45-.11.19-.32.33-.59.41-1.06.36-2.8-.05-3.99-.24-.77-.07-1.68.03-2.27-.58-.77-.86-.7-2.28-.38-3.29.52-.67 1.56-1.18 2.13-1.85 1.82-1.8 2.82-3.9 4.72-5.92l.08-.05z" class="cls-92"/><path d="M496 312.11c-1.39 2.63-3.49 4.87-4.61 7.67-.25.37-.55.92-1.05.74-.99-.7-2.43-.87-3.6-.71-1.07.05-1.69.42-1.71-.03-.07-1.21 1.22-8.25 1.61-8.51.63-.32 1.86-.78 2.74-1.17 1.05-.42 1.69-1.25 2.77-1.75 4.32-2.25 7.96-1.16 3.92 3.64z" class="cls-37"/><path d="M331.5 328.46c1.39.07 7.17.55 10.07.76 1.15.12 3.48-.24 4.77.08.14.07.42.17.36.36-.04.19-.49.32-.96.33-4.39-.07-8.8.24-13.19.06-26.17-.74-52.86-1.29-79 .91-1.27 0-2.3-.13-3.36-1-.21-.13-.57-.37-.7-.52-.13-.16.15-.16.57-.13 25.55 1.92 55.14-.92 81.32-.85z" class="cls-67"/><path d="M348.83 327.02c.73.41-.57.74-1.04.65-25.75-1.11-52.1-.49-77.76-1.1-.08-.22.36-.41.84-.45 25.96-.35 51.97.43 77.82.85zm60.86-.8c.74.43-.63.76-1.05.69-18.55-.35-37.61.49-55.9.46-.08-.22.36-.41.84-.45 18.62-.2 37.3-1.01 55.97-.75z" class="cls-33"/><path d="M191.07 319.3c.6.61 1.52 1 2.34.61.4-.03 1.52-1.24 1.44-.53-.04 1-.77 2.96.43 3.51 1.04.37 2.16.39 1.74-1.1-.19-1.08-.16-.98.57-.42.47.34 1.21.54 1.68.73.84.36.47 1.16-.23 1.48-.68.35-.81 1.01-.34 1.61.24.35.58.63.58.82-.08.48-1.55.63-1.88.89.45.22 3.94.57 4.94.78.12.04.32.09.22.27-1.27 2.3-5.52.82-7.99.06-2.39-.61-3.79-1.68-5.78-3.95-1.13-1.46-1.19-2.64.83-1.2 1.45.82 2.87 2.81 4.67 2.34.29-.16.31-.45.17-.74-1.05-1.68-2.35-3.49-3.4-5.15Z" class="cls-90"/><path d="M202.71 325.45c-.7.84-3.22-2.95-3.23-3.21.04-.38.46-.69.62-1.02.11-.21.11-.39-.13-.51-.43-.26-1.59-.04-1.9-.15.13-.11.39-.34.51-.46 2.61-1.9.54-1.28.69-3.38.06-.24 0-.5.23-.67.51.5 1.01 1.6 1.42 2.25 1.25 2.28 1.68 4.09 1.83 7.02l-.03.12Z" class="cls-90"/><path d="M139.41 334.76c.26 1.23-.1 3.26-.16 4.47-.06.48-.06.74-.29.98-.87.93-2.3-.06-3.35.31-.73.27-1.14.68-1.17 1.34 0 .6.47 1.15.68 1.68.29.93-.86 1.43-1.71 1.73-.9.3-1.6.52-1.98 1.33-.88 1.67-1.09 4.04.63 3.53.46-.15.53-.26 1.08-.4.48.07.76.57 1.19.95.86.7-.36.63-1.46 1.07-1.48.43-5.11 1.43-5.83.55-.23-.32-.1-.75.06-1.06 1.02-2.03 6.28-10.08 7.89-12.29 1.16-1.57 2.74-3.02 4.36-4.19h.07Z" class="cls-81"/><path d="M559.92 314.52c.94 3.09-5.38 9.19-3.26 12.17.73 1.17 1.85.9 2.25-.39.19-.51.16-1.16-.25-1.5-.34-.34-.84-.39-.91-.61-.02-.46.56-.84 1.08-.91.97-.2 3.12.99 3.59.17.82-1.33 1.66-4.55 3.59-4.28.08.08.04.24-.09.43-1.21 1.68-3.55 4.17-4.26 5.31-.86 2.64 4.22.12 5.26-.03.78-.06 1.08.57.52.88-2.49 1.43-10.97 3.5-12.89 2.79.06-5.63 2.11-9.74 5.3-14.01z" style="fill:#eae9ea"/><path d="M180.15 331.48c1.13-.41 2.59-.33 2.91 1 .1.34.11.54 0 .88-.44 1.65-2.03 7.69-2.2 8.33-.17.66-.62 1.63-1.39 1.61-.24 0-.29-.17-.44-.54l-1.15-2.81c-.23-.75-.37-.45-.9-.21-1.28.8-.81-.19-.9-1.12.02-.74.06-1.43-.42-2.01-.13-1.08 1.39-1.58 1.33-2.62.05-.9-.96-1.41-1.72-1.72-.22-.12-.28-.25-.17-.37.76-.82 3.86-1.01 4.94-.42h.13-.01Z" class="cls-143"/><path d="M653.03 327.76c2.58 1.61 1.71 2.28-.44 3.29-1.61.85-3.19 2.1-4.93 2.82-.1 0-.14-.07-.15-.21.2-1.19.04-2.7-.12-3.89-.07-.9-.26-1.63.39-1.91.2-.09.45-.19.65-.28.62-.27.75-1.12.24-1.51-3.16-1.47-6.62.41-9.97.09-1.09-.08-.64-.16.3-.52 1.57-.59 4.34-1.66 5-1.89 3.32.28 6 2.15 8.84 3.89l.18.11Z" class="cls-44"/><path d="M524.13 330.72c2.25.31 7.47 2.32 8.44 4.74 1.06 3.91-4.59-1.16-5.18-1.42-.88-.41-2.14-.51-2.9.22-.2.15-.47.38-.71.18-.87-.8-1.69-2.48-2.89-3.02-1.24-.44-1.93.21-1.82 1.53.08 3.04 1.09 6.58 1.77 9.47-1.58-2.62-2.57-6.07-3.73-9.15-1.74-4.51 4.02-3.43 6.88-2.59l.15.03h-.01Z" class="cls-35"/><path d="M409.43 326.27c15.39-.37 31.03-.43 46.43.61 2.92.91-2.81 2.88-4.83 3.08-1.42.07-2.59.37-4 .71-2.36.42-4.57.22-7.03-.4-12.57-.92-25.86-.64-38.24-1.06 4.78-.89 10.43-.32 15.28.03 11.92-.2 24.68 1.36 36.36-.63.59-.19 1.17-.52 1.14-.73-14.55-1.65-29.8-.76-44.55-1-.48-.06-.8-.33-.64-.53l.07-.07Z" style="fill:#d9d6d7"/><path d="M127.07 330.75c.54.12 1.43-.19 1.54.34.11 1.52-1.85 7.87-2.49 9.79-.31.72-.33 1.82-1.03 2.31-.3.19-1.02.26-.98-.26 1.52-3.66 2.24-7.49 3.5-11.28-.19-.19-3.38-.09-3.62-.06-.13.48.42 1.36.49 1.88.05.23 0 .35-.15.4-.83.05-1.95.1-2.61-.42-1.56-1.01-3.51-.1-5.18.11-.76.05-.8-.33-.27-.83.9-.79 2.29-1.23 3.34-1.83 2.22-.96 4.96-.85 7.3-.19l.16.02z" class="cls-3"/><path d="M213.64 331.52c.78-.09 1.88.38 2.18 1.15.15.58-.5.93-.63 1.2-.08.17-.2.35-.34.48-3.23-2.42-6.6 1.95-8.8 4.1-.3.22-1.16 1.43-1.04.52.57-5.39 3.66-6.96 8.48-7.44h.15Z" style="fill:#c7c5c6"/><path d="M505.49 330.81c4.51.52 8.29 2.87 9.95 7.3.46 1.07-.46 1.82-1.37 1.31-.44-.73-.84-2.22-1.74-2.9-1.06-.92-6.08-5.22-6.26-2.07-.37 1.44-1.35-.71-1.81-1.15-.54-.81-.84-.98.25-1.05.63-.1 1.7-.19 2.25-.3.26-.03-1.42-1.07-1.33-1.13l.05-.02Z" style="fill:#cdcdcd"/><path d="M469.63 327.7c.71 0 .72-.57 1.15-1.09.87-.92 2.71-1.73 3.94-1.34.15.1.18.28.1.51-1.25 2.85-4.04 3.18-6.97 3.42-1.02.06-.19.28.88.84.93.51 1.96.76.92.88-2.75.31-5.57.62-7.77-.18-.05-.24.82-.49 1.06-.85.68-.95-1.15-.79-1.76-1.04-.86-.28-2.31-.03-1.96-1.26.21-.79.95-1.68 1.52-2 1.23 3.15 4.49 3.2 8.73 2.12l.15-.02Z" style="fill:#352f2f"/><path d="M496.03 337.12c.34.91.25 2.23-.9 1.34-1.45-1.99-3.11-3.62-5.41-4.63-1.12-.44-2.57-1.59-2.35.54-.19.45-1.15-.46-1.33-.64-.24-.27-.38-.93-.13-1.23.27-.25.66-.08 1.05-.14.35-.04 1.25.03 1.29-.3-.24-.48-1.81-.9-2.22-1.23 4.29.15 8.2 1.69 9.95 6.15z" style="fill:#d4d3d3"/><path d="M542.27 326.17c.27.05.89.11 1.04.33.29.32-.26 1.02-.64 1.24-.95.3-1.92.35-3.01.54-1.32.17-2.61.39-2.97.26-.15-.08-.17-.37-.17-.77.05-.44-.1-.95.12-1.22.17-.01.52.66.96.95.53.45 1.43.52 1.84-.04.36-.44.47-.99-.17-1.15-1.58-.39-.87-1.37.24-1.78.94-.34 2.57-.13 3.12-.95.29-.56-.56-.38-1.03-.81-.62-.48-.55-1.58-.03-2.28.56-.67 1.22-.02 1.84.29.71.45 1.48.52 2.19 0 2.42-1.63 1.52-4.9 2.06-5.5.77-.48 1.77-.55 2.63-1.16.59-.33 1.04-1.13 1.05-1.15-.05.74-.54 2.65-1.19 3.36-1.65 2.21-7.43 8.59-8.06 9.73-.03.05 0 .09.07.12l.1.03v-.04Z" class="cls-27"/><path d="M553.14 310.23c.16-.34.54-1.5.2-1.99-.53-1.11-2.76-.51-2.38.66.23.7.24 1.54-.39 2.05-.77.64-1.4.68-1.07-.48.3-1.03-.15-1.66-1.13-1.57-2.17.4-6.56 2.22-6.73 4.52.02.53.18 1.03-.08 1.55-.25.62-1.03.98-1.38 1.4-.35.76-2.27 5.7-3.18 7.97-.25.61-.41 1.1-.44 1.04 0-.53.19-1.84.37-2.57 1.09-4.26 2.55-9.23 5.64-12.51 3.24-2.94 8.75-3.08 12.85-4.36 2.61-.49-1.91 4.01-2.28 4.31v-.03Z" class="cls-27"/><path d="M505.94 334.69c.52.23.95.84 1.5 1.3.9.88 1.82 1.67 2.49 2.41.55.89 8.07 12.98 8.77 14.15-.03.18-.91-.05-1.2-.07-5.86-.91-8.12-.8-12.18-5.1-.13-.13-.73-.77-.63-.77.41.18 1.25.81 1.77 1.13 1.72 1.01 1.38 1.6 2.31-.8.37-.87.68-1.77.82-1.9.33.02.55.73.82 1.04.47.77 1.04 1.54 1.1 1.8-.12.61-1.25 1.33-1.7 1.89-1.29 1.28 2.93-1.11 3.09-.98.28-.05.07.42-.34 1.03-.25.44-.64.73-.65 1.17.11.19 1.09.09 1.84.12.42 0 .72 0 .8-.13.04-.55-.52-1.33.39-1.39.22-.04.57 0 .62-.22.03-.72-3.1-3.92-4.34-4.71-.21-.16-.16-.29.15-.47.59-.27.9-.63.44-1.15-.68-.8-1.09-1.73-1.48-2.57-.33-.65-.76-.99-1.83-.81-.47.03-.96.31-1.43.3-.14-.09 2.18-1.94 1.8-2.07-.17-.08-.75-.04-1.15-.17-1.11-.36-1.59-1.46-2.13-2.47-.08-.23-.07-.61.25-.57l.1.02Z" style="fill:#efeeee"/><path d="M113.83 315.09c.27-.27.81-.79 1.2-.57.21.28.22.79.41 1.17 1.01 1.86 1.88 4.56 3.99 5.45.39.05.77-.71 1.09-.89.44-.16.47.5.56.88.17.83-.38 1.53-.74 2.18-.13.41.21.27.76.23 4.04-.22.12 6.13 5.91 3.36.37-.35-.21-1.29-.77-2.46-.55-1.1-1.17-2.38-1.25-3.51-.09-.72.23-1.68.57-1.49.52.56.92 1.91 1.35 2.7 1.35 3.26 3.81 7.84-1.92 6.6-3.73-.86-9.72-.3-11.58-4.52-.38-.6-.71-1.9.32-1.11 1.73 1.6 4.38 3.02 6.86 2.8.45-.04.86-.2.33-.64-3-2.59-5.51-6.43-7.11-10.05l.04-.13z" class="cls-124"/><path d="M177.79 330.73c.66-.23 1.47-.52 2.16-.07.22.15.65.33.45.65-1 .51-2.89.05-4.01.34-.39.24-.16.7.31.73.44.08 1.19-.16 1.67.17.55.66-.21 1.44-.82 1.74-.25.15-.52.4-.56 0-.08-3.07-6.53 2.36-7.2 2.78-1.92 1.09-1.04-1.32-.36-2.09 2.13-2.72 4.85-3.77 8.2-4.22l.17-.04Z" class="cls-110"/><path d="M486.66 311.24c3.7-3.48 9.03-5.18 14.01-4.57-.25.35-2.15 2.53-3.41 4.02l-1.12 1.31c-.16.15.17-.5.28-.73.34-.86 1.32-1.96.49-2.71-1.06-.63-2.6-.63-3.76-.24-1.42.54-1.78 1.81-2.61 2.34-1.05.55-2.81.59-3.9.64l.03-.05h-.01Z" class="cls-145"/><path d="M517.71 322.86c.03.61-.4 2.09-.48 2.94-.1 1.21-.51 2.2-.05 2.6 2.19.25 4.59-.18 6.7-.82.53-.31.77-1.11 1.37-1.33.44-.23.95.38 1.31.1.16-.1.31-.32.46-.47q.225-.21.45-.09c.54.38.65 1.28.08 1.79-1.91 1.79-5.54 1.3-7.95 1.71-.22.11 4.44 1.53 4.33 1.59-1.92-.03-7.2-1.21-7.06 1.88.04.39-.02.23-.15-.07-.94-2.11-.95-2.67 1.47-2.68.3-.21.36-.45-.07-.64-.66-.22-1.74.14-1.94-.72-.3-1.7-.05-4.54 1.48-5.8h.05Z" style="fill:#474242"/><path d="M195.73 330.75c.59-.27 1.53-.49 2.24-.31.68.17 1.1.32 0 .69-.36.17-1 .39-1.22.68-.32.4.6.73.2 1.89-.16.31-.41.61-.73.72-.16.06-.34.18-.41.17-.17.02.02-.58-.09-.8a.6.6 0 0 0-.4-.43c-1.82-.32-4.99 2.14-6.04 2.9-.44.23-.48.21-.73.28-1.27.26-.26-1.5.11-1.99 2.02-2.4 3.76-3.29 6.92-3.75l.16-.04h-.01Z" class="cls-99"/><path d="M80.94 330.71c2.29-.78 4.77-.7 7.07 0 1.44.18 2.76.24 4.13.67.37.15.69.45.53.9-.22.48-.57 1.01-.91.63-.94-1.19-4.17-1.88-5.26-1.34-.06.07-.01.17.07.33.14.34.25.65.11 1.05-.12.42-.5.68-.87.88-.06-.02-.05-.13-.04-.27.33-2.15-7.25-.88-8.73-.44-.05-.03.23-.39.29-.64.09-.27.12-.51.28-.74.57-.74 2.18-.85 3.14-1.01l.18-.04v.02Z" style="fill:#d6d6d6"/><path d="M609.09 323.79a26.4 26.4 0 0 1-10.55 3.92c-.19.02-.31-.02-.29-.15.52-.89.72-2.23 1.93-2.4.47-.14.85.18 1.33.09 2.44-.93 3.84-1.87 5.5-3.53.6-.45 1.08-1.52 1.87-1.78.68.84.23 2.71.27 3.75l-.06.11Z" style="fill:#d8d8d8"/><path d="M643.44 323.76c-.53.14-1.43.54-2.05.42-1.42-.3-2.8-1.56-4.35-1.2-.24.06-.28.2-.45.44-.37.59-.93 1.3-1.74 1.3-.5 0-.94-.28-.78.55.24.26.95.26 1.41.43.61.19 1.39.27 1.54.43-.56.03-1.68.2-2.28.35-1.07.2-1.94.61-2.53-.46-.28-.54-.49-1.5-.44-2.18.1-.18.39-.27.64-.39 3.54-1.59 7.54-2.17 10.98.27l.03.05h.02Z" class="cls-44"/><path d="M100.51 325.29c.59-.26 1.61-.41 2.05.27.14.3.36.58.75.67 1.47.32.44 1.37-.45 1.43-3.17-.49-11.75-2.47-10.13-6.87.98-.95 1.9 1.05 2.58 1.56 1.47 1.51 2.82 2.18 5.04 2.94z" style="fill:#cecdcd"/><path d="M616.14 326.18c3.31 1.92 7.07-1.37 9.98-2.34.05 0 .14.02.19.03-1.08 2.24-3.54 4.06-5.99 4.54-2.46.54-5.28.13-8.06-.65.66.22 1.9.29 2.46-.27.46-.34.84-1.07 1.31-1.31z" style="fill:#c9c9c9"/><path d="M270.52 326.28c.21.86-1.15.59-1.72.64-7.01.04-14.1-.16-20.98 1.41-.77.21-1.99.07-2.54-.41.09-.64 1.62-.8 2.17-1 6.24-1.37 16.42-.9 22.99-.72l.07.09Z" class="cls-67"/><path d="M509.22 322.32c-.45.61-1.25 2.01-2.05 1.21-.77-1.33-3.16-1.23-1.21-3.11.66-.57 1.66-.48 2.37-.12.45.15.71.5.96.31.44-.81.52-6.33 4.55-6.94.15.03-.04.26-.14.45-1.39 2.51-2.6 6.07-4.4 8.09l-.08.1Z" class="cls-118"/><path d="M180.08 330.71c1.26-.77 5.34-1.03 4.91.99-1.59 3.45-2.59 7.03-4.04 10.53-.24.36-.41.18-.28-.25.08-.22.13-.44.12-.68-.08-2.62 2.46-8.74-.6-9.75-.21-.08-.21-.54-.17-.74l.05-.1Z" class="cls-117"/><path d="M174.57 324.54c.4-.04 2.13-.84 2.55-.69.74.27 1.47 1.17 2.01 1.74.18.29-.1.31-.41.62-.72.49-1.47 1.54-2.28 1.56-1.24.07-2.41-.29-3.62-.97-.47-.2-4.8-4.39-3.13-4.13.29.06.62.2.9.32.59.42 3.1 1.18 3.91 1.54h.08Z" style="fill:#dedede"/><path d="M118.39 337.05c.07-.05 1.44 1.78 1.61 1.76.08-.02.37-.47.58-.74.2-.28.21-.23.43.04l.82 1.01c.27.37.53.52.45.75-.1.29-.54.67-.94.71-.75.24-1.89-.42-2.42.24-.57.67-.98 3.25-1.99 1.34-.17-.35-.36-.81-.61-1.11-.24.09-1.65 1.31-1.83 1.41 1.16-1.85 2.03-3.68 3.84-5.38l.06-.02Z" class="cls-3"/><path d="M202.8 326c1.77-.58 2.12 1.4.95 2.58-.72.71-1.9.42-2.78.62-.36.05-.93.61-.3.76 1.78-.05 4.58-.56 3.59 2.27-.17.38-.43 2.05-.8 2.33-.42-1.06-.32-2.7-.93-3.69-.31-.19-.84-.11-1.25-.12-1.96.13-3.6.04-5.53.04-.29-.12.34-.7.62-.62.87-.07 2.69-.06 2.99-.19.13-.11.14-.44-.06-.58-.18-.15-.6-.05-.93-.13-.58-.1-1.12-.43-1.62-.66-.92-.43 1.42-.19 1.73-.18 1.38.06 4.24.5 4.23-1.37 0-.27-.06-.73.02-.94l.07-.1z" style="fill:#504b4c"/><path d="M449.2 330.03c.13.08 1.52.84 1.99.8 1.37.07 5.12-.12 5.25.5.02.11-.11.21-.34.22-5.38-.48-12.02 1.39-16.84-1.33l-.15-.14c3.22-.08 6.74-.26 9.99-.06l.09.02h.01Z" style="fill:#656162"/><path d="M261.9 330.08c-2.2 1.65-5.1 1.74-7.83 1.67-2.87-.11-5.89-.48-8.38-.2-.22 0-.34-.09-.33-.19 0-.16.27-.27.7-.35 1.18-.22 3.54-.19 4.85-.19.59 0 .79.02 1.13-.08 3.07-1.37 6.6-.56 9.84-.7z" style="fill:#6d6a6b"/><path d="M470.42 330.79c.26.08.65.45.54.61-.09.16-.59.04-.95.03-2.67-.14-5.63.1-8.13.92-.1.09-.12.22-.08.38 1.03 2.39 1.37 5.54 2.08 7.99.03.19 0 .25-.18 0-1.66-2.28-3.5-7.69-2.23-9.72.59-.5 1.56-.25 2.33-.38 2.15-.12 4.34-.22 6.47.13l.15.05Z" class="cls-67"/><path d="M581.78 323.82s-.31.64-.53 1.07c-.74.97 2.65.4 2.9.25 1.03-.23 2.1-1.39 3.06-1.64 1.01-.13.43 1.15.1 1.74-.35.47-.87.68-1.38 1.04-1.68 1.06-3.54 2.13-5.54 1.74-.32-.09-.68-.13-.88-.39l-.18-.7c-.25-2.4.7-2.3 2.41-3.11z" style="fill:#e1e1e1"/><path d="M140.23 326.18c-.06.28-.57 1.24-.83 1.48-.15.07-.45-.05-.66-.07-2.98-.32-5.67-1.48-7.28-4.14-.15-.29-.4-.8-.2-1.05.07-.1.22-.23.38-.19 2.48 1.88 5.48 3.28 8.55 3.9l.05.05v.02Z" class="cls-7"/><path d="M542.08 331.57c2.61.51 1.46 1.66-.03 2.31-1.66-.53-3.32-.13-4.89.62-.17.05-.44.23-.53.16-.15-.15-.05-.66-.08-.91.05-.96-.06-2.05.09-2.95 1.68-.8 3.73.4 5.36.75l.09.02Z" class="cls-147"/><path d="M617.72 330.78c2.93.04 7.25.06 8.46 3.34.31.8-.05.56-.63.36-2.86-1.03-5.61-2.71-8.77-2.22-1.7.43.68-1.16.86-1.44l.09-.04z" class="cls-133"/><path d="M140.23 331.57c1.07-.23 5.96-1.89 6.89-1.64.83 1.34-.54 3.08-1.17 4.27-.11.19-.2.43-.23.47-.08-.39 0-1.77-.03-2.33-.02-.43.05-.67-.08-.75-.34-.13-.46-.12-.74-.15-1.88-.13-2.55 1.62-3.3 2.19-.45.29-1.09.38-1.67.27-2.04-.41-1.46-1.82.18-2.28l.14-.04h.01Z" class="cls-79"/><path d="M475.74 323.01c-.26.73-.41 1.6-.8 2.31-1.42 1.25-2.93 1.98-4.69 2.34-.76-.51-1.56-.75-2.42-1.09-.82-.35-.88-.57-.08-1.12.65-.43 1.7-.68 2.34-.23 1.92-.25 3.85-1.44 5.63-2.24l.03.03z" class="cls-102"/><path d="M472.65 332.38c2 .71 3.57 2.11 4.42 4.07.3.61.69 1.48.96 2.09.05.12-.01.02-.06 0l-7.72-5.4c.91.17 2.06.89 3.05.75.14 0-.69-1.43-.71-1.53h.06z" class="cls-67"/><path d="M176.09 337.02c-1.27.29-1.26 1.79-1.11 2.92.15 1.26.57 2.43.36 2.62-.44.35-1.25-.41-1.69-.74-.61-.5-1.43-1.1-2.17-.93-.03-.05.22-.35.32-.51 1.23-1.79 2.67-3.48 4.31-4.84.11.04.03.47.05.68v.73l-.07.08Zm4.69 5.51c-1.45 3.81-2.4 6.34-6.97 7.82.04-.13 3.82-3.41 3.82-3.56-.31-.27-.76-.59-1.15-.89-.2-.14-.29-.22-.21-.26.35-.07 1.11-.22 1.43-.53.5-.2 3.43-4.8 3.12-2.74z" class="cls-151"/><path d="M193.24 309.71c-2.35-1.12-5.69-2.13-7.79-.09-.29 0-.69-.39-1.1-.55-.97-.47-2.97-1.3-1.64-2.4 3.41-.59 8.25.51 10.55 3.02z" class="cls-135"/><path d="M629.42 344.07c.77.77 4.28 4.18 4.67 4.65-2.97.42-6.23-.05-9.2-.7-.55-.11 1.57-.02 2.93-.05.79-.02 2.81.05 3.16-.03.21-.24-1.06-2.93-1.54-3.83v-.03h-.02Z" class="cls-59"/><path d="M215.19 334c.22 1.05 1.14 2.65.46 3.69-.09.1-.14-.38-.24-.84-.13-.91-.3-1.17-.93-1.42-1.17-.4-.78 1.6-1.26 2.18-.27.57-1.24.83-1.73.99-.21.08-.23.15-.18.35.05.59.66 1.82.23 2.27-.68-.08-1.42-1.21-1.81-1.8.04-.62.67-1.14.93-1.7.97-1.5 1.94-2.87 3.7-3.75.28-.08.59-.08.74-.04l.08.07Z" class="cls-30"/><path d="M184.82 326.16c.38.76 1.36 2.09.69 2.98-4.1.51-8.59.12-12.27-2.06-.69-.71 3.38.62 3.8.62 3.05.59 8.85 2.22 7.79-1.51v-.03Z" class="cls-45"/><path d="M98.84 321.44c-2.22-.86-2.85-3.56-3.87-5.43.44-.82 1.71-2.28 2.31-3.14.44 2.84.17 5.86 1.59 8.53l-.03.05Z" class="cls-151"/><path d="M140.23 331.53v2.03c0 .32.04.36-.13.51-.17.16-.33.38-.52.56-.22.19-.26-.55-.46-.71-.84-.99-2.28 0-3.39.02-.64.18-1.88.95-2.36.38-1.44-2.66 5.36-2.38 6.8-2.79z" style="fill:#a8a4a5"/><path d="M101.2 310.46c-3.68-1.26-7.24-2.93-11.33-2.33-.25.08-.4.26-.37.46.09.45.72.4 1.28.35 1.27-.18 1.15.76 1.03 1.68-.03.37-.01.64-.06.65-.21-.12-3.14-3.12-3.77-3.73-.1-.21.1-.15.38-.19 5.72-.36 8.47-.23 12.84 3.09v.03Z" style="fill:#dedcdc"/><path d="M154.37 333.11c.61-.16 1.15-.06.69.74-.19.24-.42.28-.67.47-1.57 1.03-3.95 2.9-4.82 4.28-.35.32-.53.6-.86.53-.38-.97.83-2.96 1.3-3.71.99-1.39 2.74-1.48 4.19-2.27l.16-.05Z" class="cls-87"/><path d="M118.34 331.57c-.39.24-2.45 1.3-1.09 1.54.23.06.63-.02 1.02.08-1.64.75-3.52 2.67-4.97 3.81-1.25-3.13 2.59-4.83 5.06-5.46l-.02.02Z" class="cls-7"/><path d="M95.8 333.88c4.45-4.29 8.66-3.23 14.71-2.99.11.11-.02.36-.17.73-.23.58-1.07 2.76-1.18 2.93-.05-.51.37-2.28.62-2.88-2.21-.27-8.35 0-9.94-.09-.23 0-.21 0 .27.1.83.19 2.77.51 3.24.69.29.22.25.66.16.98-.19.4-.59.61-.99.34-1.43-1.1-4.45.12-5.8.93-1.05.79-1.83 1.01-1.04-.59l.11-.15z" style="fill:#cfcece"/><path d="M568.55 333.2c-.32 1.46-1.97 1.23-3.08.8-1.08.04-2.42-.37-3.17.66-.12.02-.26-.32-.37-.46-.49-.74-.67-1.78-.37-2.61.1-.13.3 0 .47 0 2.09.34 4.82.08 6.5 1.52z" style="fill:#979494"/><path d="M228.41 325.38c-.08.02-.68.79-.81.71-1.54-1.22-2.88-2.74-3.62-4.61-.2-.54-.55-1 .32-.9 1.92 0 3.68 4.03 4.12 4.77v.03z" style="fill:#bfbebe"/><path d="M584.98 332.37c1.79.96 3.87 2.32 3.86 4.61 0 .13-.04.02-.11 0-.72-.45-4.13-2.59-5.39-3.38-.43-.29-.81-.46-.7-.48.7-.1 1.94.23 2.27-.72l.08-.04h-.01Z" style="fill:#b5b3b3"/><path d="M215.84 345.62c-.42-.56-1.19-2.1-.08-2.42.45-.19 1.38-.06 1.68-.26.25-.26.5-.96.7-1.54.67-1.91.99-4.43 2.39-5.89-.06 1.66.37 3.48-.24 5.18-.94 1.85-3.07 3.45-4.36 4.96l-.08-.03Z" class="cls-30"/><path d="M552.22 337.14c.44 1.2-.08 1.19-.94.57-1.24-1.24-3.52-2.02-4.5-3.64-.05-.22-.02-.75.27-.65.12.01.26.29.42.41 2.91.77 3.4-.09 4.71 3.17l.05.13h-.01Z" style="fill:#d1cfd0"/><path d="M510.81 326.08c0-.5-.28-1.01-.65-1.37-.18-.19-.58-.3-.62-.45-.1-.13.21-.34.41-.44 1.07-.68 4.12-2.75 4.75-3.16.03 2.25-1.98 4.36-3.84 5.46l-.05-.03Z" style="fill:#d8d7d7"/><path d="M602.14 331.59c1.71.41 3.63 1.09 4.79 2.49 1.6 2.19.72 2.69-1.81 1.16-.89-.48-1.5-.96-2.31-1.34-.22-.08-.51-.25-.42-.4.04-.16.42-.32.56-.44l.48-.47c.17-.17.24-.2.13-.25l-1.47-.76h.05Z" style="fill:#c1bfc0"/><path d="M491.33 324.58c1.68-.7 3.07-3.69 4.72-4.73 2.53-1.1-2.02 5.51-3.07 6.23-.17.11 0-.67-.05-.89.05-.91-.97-.66-1.55-.62h-.06Z" class="cls-42"/><path d="M353.22 326.94v.58c-.01.2-.17.17-.39.17-.33.03-.84-.11-1.11.04-.11 1.17-.09 2.58-.13 3.8-.13.12-.48.03-.72.05-.23-.04-.59.06-.72-.06-.11-.29.05-.84 0-1.19.03-1.15-.52-2.18-1.56-2.66-.12-.1-.04-.4-.06-.61 0-.25.33-.14.58-.16 1.31 0 2.75.01 4.04 0l.06.04z" style="fill:#a9a6a7"/><path d="M536.6 335.43c2.13-.31 2.3 4.73 3.02 6.12.17.34.64.38.86.73.57.66.78 1.86.14 2.49-.13.11-.24-.01-.33-.22-1.62-2.82-3.28-5.78-3.71-9.05l.04-.07z" class="cls-147"/><path d="M128.59 327.74c-.02.35.08 1.11-.06 1.45-3.18.49-6.57-.2-9.61-1.28-.84-.26-.36-.27.23-.33 3.12-.26 6.46 1.79 9.39.14l.06.03h-.01Z" class="cls-128"/><path d="M104.3 322.14c-.27-.64-.96-.81-1.5-.79-.48 0-.86.08-.82-.22.66-2.35 4.42.19 4.09 1.61-.28.7-1.38-.59-1.58-.43.18 1.19.64 3.29-.42 4.29-.25.07-.59-.59-1.01-.72-.86-.58-2.12-1.17-2.55-2.1.54-1.33 2.53-1.57 3.76-1.58l.05-.05h-.02Z" class="cls-31"/><path d="M162.95 330.83c.58.2.5.56-.07.7-.99-.02-1.95-.29-2.72.09-.93.51.06 1.88-.49 2.82-.16.46-1.08.27-1.39.26-.16-.01-.06-.55-.24-.75-.14-.25-.35-.45-.54-.67-.25-.26-1.09.25-1.09-.32-.04-.64.78-.78 1.21-.96 1.89-.81 2.65-1.24 5.22-1.2l.12.03Z" class="cls-87"/><path d="M82.54 326.96c.82 1.33-1.71 1.25-2.39.73-9.19-4.63-.52-2.42 2.28-.82z" style="fill:#cecccd"/><path d="M555.34 351.13c.14 1.93-4.06.54-5.07.12-.52-.13-.52-.3-.12-.63.37-.25.83-.14 1.2-.38.24-.28.38-.75.57-.98.54-.98 1.29-.37 1.82.25.3.36 1.23 1.19 1.56 1.54z" class="cls-148"/><path d="M85.68 326.13c.59.51.59 1.27 1.56 1.42.29.08.96.14 1 .22.25.18.41.33 0 .56-.36.21-.69.08-1.02.15-2.06.72-4.25.46-6.32-.03-.17-.06-.27-.2-.41-.37-.09-.15-.36-.35-.29-.36.03-.03.38.06.56 0 .52-.07 1.08-.5 1.46-.73.82-.45 2.83.42 3.38-.84l.08-.03Z" class="cls-105"/><path d="M531.09 324.58c-.57.46-2.33 1.99-3.3 2.34-.39.02-.85-.08-1.2-.04-.39.08-1.02.26-1.27.12-.7-.33-.23-1.16.32-1.61 1.31-.37 2.82-.8 3.91-1.61 1.14-.73 1.97-1.44 1.58.73l-.03.07Z" class="cls-56"/><path d="M50.54 326.89c-.36.79-1.21 3.23-1.62 3.9-.68-.35-2.43-.29-3.02-1.01-.15-.18.11-.49.29-.72 1.02-1.33 2.93-1.49 4.31-2.16l.04-.02Z" style="fill:#e1dfe0"/><path d="M163.64 319.14c-.84-.55-3.17-1.85-3.91-2.42-.23-1.23.99-.56 1.54-.75.03-.63-1.79-2.81-1.5-3.85 1.84 1.89 3.27 4.33 3.86 6.95v.07z" class="cls-118"/><path d="M160.56 323.81c.57.52.76 1.6.11 2.18-.46.44-.66 1.08-.25 1.66-1.07.03-2.32-.19-3.41-.42-.57-.14-1.23-.19-1.45-.82-.58-1.37 1.1-.53 1.79-.32.4.01.79.04 1.2.05.22 0 .38 0 .37-.08-.1-.3-.29-.86-.41-1.25-.15-.44-.28-.86-.33-.98-.03-.09.22.02.47 0 .55-.02 1.42-.16 1.8-.07l.09.05z" style="fill:#e9e9e9"/><path d="M568.59 333.16c.7.31 2.65 6.09.74 4.33-.31-.57-.31-1.41-.89-1.78-.88-.73-2.19-.99-2.97-1.77-.03-.09.21-.11.33-.19.77-.45 1.79-1.02 2.69-.64l.1.06Z" style="fill:#d3d1d2"/><path d="M158.18 310.52s-10.56-3.77-10.92-3.9c3.92-.25 7.9 1.25 10.87 3.86z" class="cls-59"/><path d="M509.25 322.27c-.32.48-.77 1.02-.65 1.41.25.29.95-.02 1.27.04.37-.05.22.54.13.82-.39.1-1.06.2-1.46.44-.92.39-1.91 1.35-2.79.54-.11-.12-.37-.36-.34-.51 0-.17.26-.25.37-.42.51-.54.69-1.28 1.29-1.68.46-.33 1.99-.52 2.2-.66l-.02.05z" style="fill:#5a5757"/><path d="M579.55 327.67c1.2-.11 2.56.06 3.78.03-1.5.63-3.29 1.04-4.93 1.29-1.66.18-3.39.44-5.02.09-.19-.11-.18-.29-.2-.46 0-.26.51-.04.82-.06 1.83.13 3.67-.66 5.43-.88h.12Z" class="cls-77"/><path d="M221.42 325.35c.27.7 1.43 2.12.74 3.05-2.11.45-4.39.12-6.51-.25-.67-.14-1.38-.26-2.04-.46.02-.05.47-.08.7-.09 2.23-.31 8.05 1.81 7.11-2.21z" class="cls-138"/><path d="M534.2 348.78c-1.78-1.99-3.78-4.18-3.85-7.02 1.56 2.02 3.68 4.27 3.89 7l-.03.02z" style="fill:#e9e7e8"/><path d="M542.04 344.86c.14.26 1.26.6 1.37.9.13.33-.03.66-.16.97-.43.73.24 1.59.89 2.09.27.2.65.46.91.69-.66-.23-1.39-.23-2.05-.5-1.69-.62-1.95-2.85-2.57-4.17.06-1.7.83-2.01 1.56-.04l.04.08v-.02Z" class="cls-81"/><path d="M213.58 331.55c2.35-1.69 5.54-.46 8.21-.73.56-.06.56.58.49.97-.07.51-.62 1.01-.84 1.31-1.56-2.55-5.3-1.43-7.85-1.52v-.03z" class="cls-30"/><path d="M533.44 321.48c-.28.66-.54 1.4-.96 1.87-.25.21-.85.83-1.46 1.19-.19-.1-.93-.47-1.27-.64-.18-.09-.22-.11-.17-.15.38-.34 2.77-2.75 3.12-3.13 1.19-1.23 1.04-.1.78.76l-.03.1Z" class="cls-95"/><path d="M157.38 326.16c-.57.05-1.26.1-1.56.72-1.55-.13-3.76-.74-3.82-2.72 0-.14-.12-.35-.04-.37 1.77.64 4 .97 5.44 2.32v.05z" style="fill:#bab8b8"/><path d="M106.72 327.71c1.43-.1 2.18-.53 2.09-1.82 0-1-.76-2.44-.5-3.59.81 1.7 3.23 5.56 1.1 6.2-.98.37-2.08-.27-2.72-.78h.03Z" class="cls-92"/><path d="M170.68 318.23c2.53-2.29 3.8 2.01 3.85 3.94-1.37-1.06-2.81-2.39-3.87-3.83z" style="fill:#e5e5e5"/><path d="M105.9 315.98c-.15-.27-3.96 1.33-3.12-3.9 1.84 1.86 1.75 1.21 3.12 3.9" class="cls-31"/><path d="M163.68 319.93c1.63 2.36 1.71 5.82 1.47 8.52-.26.01-2.99-.57-3.83-.74.58-.06 2.27.03 3-.03.17-.02.07-.13.07-.35-.13-1.44-.73-6.95-.74-7.46l.04.05Z" class="cls-118"/><path d="M491.28 319.9c.56-2.34 1.58-5.14 3.9-6.23-.82 2.29-2.45 4.25-3.87 6.22h-.03Z" class="cls-145"/><path d="M345.46 330.84c-.16 1.19-2.1 1.4-3.16 1.52-1.78-.05-4.74.71-6.21-.75 3.01-.22 6.25-.51 9.31-.81l.06.03Z" style="fill:#bfbcbd"/><path d="M614.54 330.78c-2.58.34-5.27 1.04-4.05 4.26.21.62.06.26-.13-.08-2.78-4.94.33-4.13 4.21-4.2h-.03z" class="cls-133"/><path d="M311.98 331.61c.74.23.27.71-.27.76-2.74.1-6.27.74-8.3.77-.32-.04-.7-1.22-.89-1.47 2.92-.28 6.3.03 9.32-.09z" style="fill:#413b3c"/><path d="M229.93 333.93c-.8.45-2.96 1.69-3.93 2.39-1.15 1.06-1.39.32-.72-.85.63-.95 1.34-1.66 2.27-2.29.13-.08.17.01.38.06l2.01.67-.02.02Z" class="cls-110"/><path d="M235.39 345.64c1.04-2.2.92-5.23 2.89-6.9.47-.29.1.27.05.59-.31.96-.5 2.05-.79 2.93-.37 1.12-1.34 2.39-2.14 3.4v-.02Zm-2.36 2.37c-.94.86-1.79 1.76-3 2.28-.76-.64-1.57-2.09-2.26-2.91-.18-.26-.2-.2.04-.18 1.39.2 3.99.58 5.28.76l-.05.05Z" style="fill:#edebec"/><path d="M239.26 328.49c-3.1 1.67-6.22.83-9.3-.81.38.03 9.36.78 9.36.78z" class="cls-80"/><path d="m190.97 323.79-1.61-.51c-.31-.08-.35-.19-.46.01-.11.14-.21.48-.33.42-.11-.03-.31-.29-.45-.41-.52-.52-.97-.92-1.35-1.57-.19-.36-.67-.97-.34-1.48.11-.12.22-.12.34 0 .25.45.71.45 1.12.62 1.23.44 2.3 2.26 3.06 2.9z" class="cls-42"/><path d="M546.76 325.3c.92-.42 1.37-.5 1.01.29-.08.13-.23.38-.3.51-1.27.69-2.68 1.12-4.08 1.48-.18.03-.43.14-.55.07-.24-.24-.68-1.07-.8-1.4-.04-.18.27-.19.52-.24 1.29-.24 2.91-.24 4.13-.66l.09-.04h-.02Z" class="cls-79"/><path d="M463.21 319.89s-1.49 7.41-1.55 7.76c1.11.1 2.42 0 3.77.04h4.02s-.47.11-.82.2c-2.73.64-7.94 2.14-7.77-2.28.63-1.97 1.56-3.72 2.31-5.66l.03-.06z" class="cls-102"/><path d="M189.35 336.27c-1.18 1.04-1.49 3.29-3.05 3.86-.59-2.07.81-4.06 2.34-5.42.13.27.72 1.48.73 1.5l-.03.06z" style="fill:#d7d5d6"/><path d="M177.69 330.77c2.06-1.66 5.02-.5 7.44-.74.55-.05.54.6.48.97-.08.53-.58.95-.82 1.31.26-1.66-1.06-1.73-2.67-1.63-1.57.19-2.96.04-4.41.11v-.03h-.02Z" class="cls-45"/><path d="M545.97 332.42c.46.84-.03 1.33-.93 1.02-.28-.08-.59-.29-.91-.25-.93.11-1.36-.36-1.38.61-.03.08.12 1.23-.09.85-.19-.19-.37-.45-.52-.58-.15-.12-.11-.16-.11-.49v-1.97c1.18-.02 2.66.37 3.84.72l.11.1h-.01Z" style="fill:#d1cecf"/><path d="M602.89 333.18c-.02.06.05.66-.05.71-.61 0-1.69-.12-2.14.5-.11.17-.15.32-.21.31-.46-.15-3.74-1.16-2.21-2.38 1.27-.19 3.26.93 4.58.83l.04.03Z" style="fill:#7e7c7c"/><path d="M158.21 335.52c.11 2.78 1.04 3.45-2.28 2.39 1.51 2.63-1.08 2.55-2.82 3.59-.09.04-.27.14-.36.18-.08.01.12-.22.19-.34 1.43-2.04 2.53-5.36 5.22-5.9z" class="cls-124"/><path d="M169.88 323.78c-.97-1.11-2.99-1.31-2.34-3.9 2.15-.7 1.76 1.99 3.12 3.12z" class="cls-105"/><path d="M547.47 339.42c-2.14-.41-4.41-2.49-4.63-4.68 1.81 1.11 3.48 2.84 4.65 4.64zm3.92 6.21c-2.02-2.24-1.5-2.07-3.12-4.68 1.85.86 2.9 2.71 3.12 4.68m2.34 3.9c-.71.49-1.55.55-2.34.78l.78-3.9c1.41 1.4 1.14 2.57 1.56 3.12" class="cls-81"/><path d="M240.13 330.85c-.09.75-1.13.13-1.58-.03-.91-.11-2.23-.13-3.16 0-.91.27-1.69.42-2.52.22-.47-.13-.8-.22-.19-.51 2.16-1.01 5.43-1.05 7.42.24l.03.07Z" class="cls-80"/><path d="m587.28 325.34-.78-1.56c.85-.68 1.61-2.84 3.11-3.12.01 1.58-1.14 3.55-2.33 4.68" style="fill:#b0afaf"/><path d="M581.83 330.8c-1.44-.15-5.89-.24-7.8-.03 2.15-1.32 5.7-1.31 7.8 0v.02Z" class="cls-77"/><path d="M346.26 329.24c.82.1 2.33.41 2.29 1.48-.53.12-1.61 0-2.09.2-.89.33.21.65.92.71.52.07 1.5.02 1.93-.03-.47.12-1.31.28-1.82.37-1.74.3-3.42.43-5.2.35l.2-.2c1.18-.85 3.97-.94 3.71-2.86l.06-.03Z" class="cls-33"/><path d="M124.63 316.76c-2.28-.91-3.59-1.33-2.34-3.9 1.65 2.01 1.29 1.69 2.34 3.9" style="fill:#e2e2e2"/><path d="M162.91 330.77c.61.05 1.62-.12 2.22.05.05 1.38.34 3.07 0 4.45-.1.32-.38.86-.65.96-.07-.05.05-.42.06-.66.13-1.38.47-4.42-1.61-4.07-.13-.03-.04-.64-.06-.7l.06-.04h-.01Z" class="cls-124"/><path d="M470.25 325.34c-.92.33-1.68 1.29-3.12.78-1.6-1.17 1.53-1.66 2.34-2.34z" style="fill:#7c797a"/><path d="M208.11 323c.77 1.16.69 1.92-.78 1.56-1.08-1.17-1.76-2.44-2.34-3.89 1.87-.51 2.2 1.55 3.12 2.33" style="fill:#aeacac"/><path d="M87.97 330.8c-2.25-.16-4.78-.15-7.01-.03 1.74-1.34 5.27-1.27 7.02 0l-.02.03z" class="cls-19"/><path d="M52.85 333.14c1.33-1.31 1.78.42 3.9 1.56.31.17.55.52.78.78-3.03-1.01-2.84-1.41-4.68-2.34" style="fill:#dfdfdf"/><path d="M126.97 330.8c-2.25-.11-4.79-.2-7.01-.03 1.75-1.34 5.27-1.27 7.02 0l-.02.03z" class="cls-128"/><path d="M475.71 323c.11-.33.64-4.87 2.34-3.12 1.51 1.56-1.9 2.88-2.34 3.12" style="fill:#a6a4a4"/><path d="M91.08 323.78c-2.47-.65-4.21-.39-2.34-3.12.69 1 1.46 1.73 2.34 3.12" style="fill:#e4e3e3"/><path d="M318.98 331.61c.19.07.5.25.4.39-.46.63-1.56.27-2.23.36-1.72-.15-3.68.24-5.29-.16.02-.19-.05-.53.06-.58 2.24-.13 4.67.01 6.93-.04z" style="fill:#4f494a"/><path d="M568.56 325.34c-1.37-.28-2.09-.62-.78-1.56.54-.39 2.86-2.65 3.11-2.34.14 1.36-.96 3.39-2.33 3.9" style="fill:#a3a1a1"/><path d="m193.28 337.04.78 2.34h-3.12c.92-1.24 1.68-1.59 2.34-2.34" class="cls-58"/><path d="M188.6 315.2c-.77-1.42-2.37-2.62-2.34-4.68 1.43 1.47 2.59 2.1 2.34 4.68" class="cls-135"/><path d="M87.21 328.51c-1.68 1.68-4.37.69-6.24-.03 1.99-.05 4.22 0 6.23-.02v.05Z" class="cls-19"/><path d="M135.55 333.92c-.44.96-1.84 1.11-2.34 1.56-1.1 1.03-1.5.6-.78-.78.19-.23.06-1 .78-1.56.69.37 1.55.78 2.34.78" style="fill:#c8c5c6"/><path d="M169.88 337.04c-.64.54-1.1 2.22-2.33 2.34-.4-1.95.66-2.67 1.55-3.9z" style="fill:#a5a4a4"/><path d="M229.21 308.24c-.06.07-.23.25-.35.23-.18.02-.35-.28-.62-.27-.88.04-1.82.02-2.66-.23-.66-.2-1.61-.68-1.84-1.32 1.91.01 3.72.74 5.43 1.51l.03.08z" class="cls-22"/><path d="M133.21 335.48c-.93.84-1.26 2.82-3.12 2.33-.28-.22 1.91-2.6 2.34-3.11z" style="fill:#bebbbc"/><path d="M221.37 306.62c.96.9 1.1 2.07 1.56 3.12l-3.12-2.73c-.03-.71 1.02-.34 1.56-.39" class="cls-22"/><path d="M231.51 336.26c.14 3.26-1.84 2.7-2.34 3.12-.12-1.95 1.41-2.22 2.34-3.12" class="cls-117"/><path d="M116.03 308.14c-.4.05-1.24.15-1.66.03-.53-.24-.79-.94-1.36-1.31-.8-.69-2.27-.7-3.15-.25-.25.15-.07.53.08 1.13.17.52.42 1.16.69 1.82.55 1.35 1.29 2.8 1.47 3.28-.12-.15-.51-.68-1.03-1.36-1.24-1.77-3.53-4.4-3.56-4.86 2.89-.58 6.63-1.82 8.52 1.46v.07Z" class="cls-58"/><path d="M107.46 320.66c-.91-1.87-1.34-4.28-1.56-4.68.8 1.55 1.77 2.67 1.56 4.68" class="cls-92"/><path d="m525.64 325.34.78 1.56c-.74.22-1.14.55-2.34.78-.31-1.12.45-1.64.78-2.34z" class="cls-95"/><path d="M151.93 323.78c-.55-.23-3.68-.99-2.34-2.34s2.11 1.91 2.34 2.34" style="fill:#898586"/><path d="M103.56 326.12c-.21.67-.47.66-.78 0-1.03-.27-1.43-.45-2.34-.78l.78-.78c.13.09 1.68-.86 2.34 1.56" style="fill:#838080"/><path d="M549.83 324.56c-.87.79-1.28 1.06-2.34 1.56l-.78-.78c.18-.07 1.85-1.23 2.34-1.56 1.1-1.03 1.5-.6.78.78" style="fill:#b5b2b3"/><path d="m601.32 323.78-.76 1.17.76.39c-.62.24-1.24 1.13-2.34.78 0-.06-.77-.29-.61-.59.36-.68 2.84-1.62 2.95-1.75" style="fill:#625f5f"/><path d="M485.07 344.85c.26.25 2.56-.14 2.34 3.12-.92-.9-2.38-1.17-2.34-3.12" class="cls-146"/><path d="M104.34 326.12c.77.21 1.28.84 1.56 1.56-1-.07-2.23.17-3.12 0v-1.56c.24.06.54-.06.78 0s.54-.07.78 0" class="cls-92"/><path d="M92.64 326.94c-.05.35.12 1.13-.05 1.47-.28.15-.78.04-1.12.08-1.11 0-2.22-.05-3.32-.02-.05-.04-.15-.12-.19-.16.02-.19-.05-.54.06-.58 1.48.04 3.27.03 4.57-.81l.05.03Z" class="cls-19"/><path d="M215.13 347.19c-1.14 1.25-1.38 2.08-3.12 3.12.09-1.82 1.27-3.02 3.12-3.12" class="cls-79"/><path d="M119.16 333.14c1.74-.62 3.43-2.09 3.12.78-.5.18-1.09.51-1.56.78.19-1.66.1-1.75-1.56-1.56" class="cls-7"/><path d="M156.61 332.36c.27.25.57.48.78.78-.63.53-1.79.48-2.34.78l-.78-.78c1.07-.51 1.43-.49 2.34-.78" class="cls-124"/><path d="M231.51 333.14c3.67-1.5 4.06-1.13 1.56 1.56.19-1.66.1-1.75-1.56-1.56" class="cls-110"/><path d="m469.47 333.14-.78 1.56c-.77-.67-2.12-1.12-2.34-2.33 1.37-.53 2.36.58 3.12.77" class="cls-67"/><path d="M555.29 351.09c.4.44 1.62.62 1.56 1.55-1.94.68-3.46-.51-4.68-.77z" style="fill:#959192"/><path d="M582.6 333.14c-1.25.29-1.84-.76-1.56 1.56-2.83-2.55-1.53-3.27 1.56-1.56" style="fill:#a8a7a7"/><path d="M77.03 333.14c-.16.1-.91 3.76-2.34 2.34s2.17-2.18 2.34-2.34" class="cls-54"/><path d="M203.42 334.7c-.2.7-.61 1.11-.78 1.56v-5.46c1.39.49.66 2.63.78 3.9" class="cls-99"/><path d="M96.54 334.7c-.09.06-1.15 1.18-1.56 1.56-1.1 1.03-1.5.6-.78-.78.59-.83.92-.98 1.56-1.56z" style="fill:#c8c7c7"/><path d="M232.29 330.8c.92-.17 2.13.12 3.12 0-.97.11-2.94 1.54-4.68.78.39-.14.72-.62 1.56-.78" class="cls-110"/><path d="M113.7 323h-.78c-.59-.99-1.98-1.57-1.55-3.12 1.53.2 1.68 2.49 2.33 3.12" style="fill:#979595"/><path d="M226.05 336.26c-.57.41-1.12 2.29-2.33 2.34-.36-1.52.82-2.11 1.55-3.12z" style="fill:#c8c6c6"/><path d="M549.05 323.78c.69-.46 1.98-3.62 2.33-.4-.32.64-1.14.8-1.55 1.18z" style="fill:#9f9b9c"/><path d="M496 337.04c.41.96 1.28 1.57.78 3.12-2.4.55-1.22-1.07-1.56-1.56z" style="fill:#989696"/><path d="M552.17 337.04c.44 1.02 1.18 1.68.77 3.12-1.42.03-1.26-2.03-1.55-2.34z" style="fill:#b8b5b6"/><path d="m209.67 324.56-.78.78c-.32-.24-1.03-.21-1.56-.78l.78-1.56c.45.38 1.25 1.46 1.56 1.56" class="cls-138"/><path d="m176.9 323.78.78 2.33c-1.56.5-2.2-1.11-3.12-1.55.6.08 1.32-.74 1.56-.78.2-.03.59-.05.78 0" class="cls-120"/><path d="M214.35 324.56q.69 1.44-2.34.78c-.5-.22-1.2-.13-1.56-.78.76.14 2.02.11 2.34-.78.34.31 1.11.47 1.56.78" style="fill:#514d4d"/><path d="M652.82 327.68c.84.52 2.44.48 3.12 1.95.03.79-1.15.21-1.56.39z" style="fill:#cfcccd"/><path d="M186.26 320.66c-.25-.57-1.3-.97-.78-2.34 2.14-.41 1.56.65 1.56 2.34z" style="fill:#4a4545"/><path d="M568.56 325.34c-.21.08-.52-.06-.78 0-.63.15-1.6-.08-2.34 0 .5-.96 1.67-1.08 2.34-1.56z" class="cls-35"/><path d="M545.93 332.36c.93.29 1.94-.69 1.56 1.56-.24-.05-.52.03-.78 0-.85-.08-1.94.27-2.34-.78.63-.12 1.35.03 1.56-.78" style="fill:#b2afb0"/><path d="M94.98 336.26c-.67.62-1.1 2.19-2.33 2.34-.37-1.53.84-2.12 1.55-3.12z" style="fill:#828080"/><path d="M240.09 330.8c1.97.8.09 1.9 0 2.34.27-1.29-.59-1.74-1.56-2.34.5.05 1.25-.12 1.56 0" class="cls-110"/><path d="M131.65 322.22v1.56c-.65-.82-1.72-1.47-1.57-2.72l.39-.39c.6.28.83 1.28 1.17 1.56h.01Z" style="fill:#716d6d"/><path d="M322.79 331.58c.68.22.67.48 0 .78-1.3.03-2.6 0-3.9 0v-.78c1.3 0 2.6.02 3.9 0" style="fill:#656161"/><path d="M326.7 331.58c-.66 1.25-2.65.75-3.9.78v-.78c1.3-.02 2.6.02 3.9 0" style="fill:#797575"/><path d="m533.45 321.44-.78-.78c.7-.8.36-2.66 1.55-2.34.51 1.49-.39 2.16-.77 3.12" style="fill:#898686"/><path d="M527.2 333.92c-.89-.43-2.15.77-2.34.78-.25.01-.62.06-.78 0-.34-2.57 1.22-1.76 3.12-.78" style="fill:#757272"/><path d="M168.32 347.19c-.69-1.95 1.27-2.58 1.56-3.12.06 1.54-.81 2.12-1.56 3.12" class="cls-146"/><path d="M149.59 338.6c-.15.26.13 1.09 0 1.56-2.75.27-1.37-.85-.78-2.34z" style="fill:#bdbbbc"/><path d="M148.81 347.97c.52-.91.69-1.75 1.56-3.12.14 1.43-.12 2.65-1.56 3.12" style="fill:#e9e6e7"/><path d="M169.88 316.76c-.89-1.49-1.03-2.13-1.56-3.12z" class="cls-120"/><path d="M231.51 309.74c-.94-.43-2.45-.16-3.12-1.56h.78c.87.39 1.92.15 2.34 1.56" class="cls-146"/><path d="M535.01 307.4c.59-.09 1.82-1.36 3.12-.77.07.94-1.19 1.12-1.56 1.55z" style="fill:#9d999a"/><path d="M416.36 329.15c.09.14-.12.08-.4.1h-14.95c-14.64.17-30.23-1.57-44.61 1.35l-.31.08c-.12.04-.19.08-.16.11.6.25 1.49.31 2.05.7 1.17.83.03.96-.88.91-.94-.03-1.92.05-2.8-.08-.16-.06-.26-.17-.3-.39-.05-.51-.05-1.73 0-2.24.12-.46.5-.47.97-.49 19.24-1.13 38.68-.86 57.99-.77 1.02-.1 2.74-.08 3.36.67l.04.06Z" class="cls-33"/><path d="M389.9 331.58c1.32 0 10.62-.28 10.93.36.02.05-.32.1-.57.14-.49.25-13.23.93-10.46-.46z" style="fill:#3f3939"/><path d="M389.9 331.62c-.03.07.06.64-.06.71-.2.08-.62.02-.92.04-2.04-.02-4.03.03-6.08-.03-.22-.04-.43-.18-.46-.28 0-.52.92-.49 1.26-.47 2.05 0 4.16-.01 6.2 0l.06.04Z" style="fill:#4b4546"/><path d="M355.57 330.79c.39-.32 5.55.16 5.47 1.44-.03.2-.5.12-.79.14-.53-.08-1.29.16-1.71-.18-.2-.23-.45-.35-.72-.43-.76-.27-2.06.1-2.26-.9v-.07z" style="fill:#d0cecf"/><path d="M367.27 331.58c.68.22.67.48 0 .78-.98-.02-4.69.33-4.69-.39 1.18-.77 3.25-.36 4.69-.39" style="fill:#b7b4b5"/><path d="M371.17 331.58c.68.22.67.48 0 .78-1.3-.01-2.6.03-3.9 0v-.78c1.3-.03 2.6.01 3.9 0" class="cls-54"/><path d="M375.07 331.58c.68.22.67.48 0 .78-1.3 0-2.6.01-3.9 0v-.78c1.3-.01 2.6 0 3.9 0" style="fill:#898585"/><path d="M378.97 331.58c.68.22.67.48 0 .78h-3.9v-.78z" style="fill:#736f6f"/><path d="M382.87 331.58v.78h-3.9v-.78z" style="fill:#5f5b5b"/><path d="M214.35 324.56c.57.4 1.56.63 1.56 1.55-1.76.39-2.51-.16-3.9-.77z" style="fill:#9b9a9a"/><path d="m523.3 317.55-.39 3.11c-1.66-1.28-2.02-3.67.39-3.11" style="fill:#ebeaea"/><path d="M341.54 329.24c-3.27-.16-7.13.82-10.13-.75 3.27-.03 7.08-.72 10.14.73v.02z" class="cls-33"/><path d="M506.14 315.98c1.2 1.19-2.2 2.49-2.33 2.34-.78-.96 1.58-3.07 2.33-2.34" class="cls-118"/><path d="m472.59 344.07-.01 1.55-3.1-.78-.01-.77z" style="fill:#eceaeb"/><path d="M77.95 344c.5.35 1.48-.14 2.01.14.18.06.24.42.2.63-.03.15-.1.07-.25.13-.56.11-1.05.21-1.71.35-.98.19-1.94.4-1.95.39-.02-.01.19-.97.38-1.95.13-.66.26-1.29.37-1.84.13-.26.66-.12.73.08.28.54-.21 1.52.14 2.01l.07.07Z" style="fill:#eae8e9"/><path d="M160.51 326.12c0-.56-.9-1.43 0-2.34 1.87.5 1.83 1.73 0 2.34" class="cls-118"/><path d="M137.88 341.73v3.11c-.43.94-1.98-2.68-1.55-3.11zm407.27 2.33h-1.55v-3.12c1.55.42 1.75 1.66 1.55 3.12" class="cls-81"/><path d="M539.69 341.72c2.29-.52 1.69 1.75 2.34 3.12-.43-.09-1.45.13-1.56 0-.1-.12-.4-2.14-.78-3.12" class="cls-148"/></g><g id="Layer_4" data-name="Layer 4"><path d="M315.45 110.47a68 68 0 0 0-4.85-.19c-1.93 0-5 .06-6.19.26-5.2.85-5.65 9.14-12.29 18.25-5.24 7.18-11.31 10.74-13 11.68-3.08 1.71-8.78 4.59-16.6 4.59-13.95 0-23.4-8.52-23.4-24.49 0-20.31 15.65-59.98 45.41-59.98 6.83 0 12.54 1.97 16.6 5.85 5.75 5.5 6.29 13.41 6.65 18.33.59 8-1.39 14.41-2.85 18.06 1.84.95 4.19 1.94 7.01 2.61 1.32.31 2.56.51 3.7.64 1.76-.12 3.33.12 3.57.83.28.82-1.17 2.34-3.77 3.57Zm-38.56 11.49c2.71-3.93 4.97-8.32 6.38-12.89-.04.12-2.04-1.23-2.18-1.35-.93-.84-1.64-1.96-1.92-3.19-1.03-4.6 3.51-8.24 7.74-8.17.37 0 .61.06.79-.35.55-1.3.81-2.83 1.14-4.2 1.05-4.36 1.41-6.7 1.41-9.69 0-6.35-2.79-8.83-6.2-8.83-13.17 0-27.43 36.58-27.43 50.06 0 4.11 1.35 7.05 3.67 8.31 1.16.63 2.25.68 2.84.68 6.4.1 12.91-9.16 13.76-10.39Z" class="cls-71"/><path d="M119.63 233.7c0 18.81-15.88 30.53-41.79 30.53H23.41V156.29h54.43c23.59 0 38.55 11.1 38.55 28.84 0 10.33-4.93 18.2-13.57 22.51 10.49 4.78 16.81 14.34 16.81 26.06m-67.69-53.98v17.58H78c6.48 0 10.02-3.24 10.02-8.79s-3.55-8.79-10.02-8.79zM91.1 230c0-6.48-4.32-10.18-11.87-10.18H51.94v20.36h27.29c7.56 0 11.87-3.7 11.87-10.18m36.24-19.74c0-34.54 23.29-56.75 59.52-56.75s59.52 22.21 59.52 56.75-23.28 56.75-59.52 56.75-59.52-22.21-59.52-56.75m89.74 0c0-18.81-11.87-31-30.22-31s-30.22 12.18-30.22 31 11.87 31 30.22 31 30.22-12.18 30.22-31M359.1 199v49.35c-10.33 11.72-27.6 18.5-47.65 18.5-35.16 0-57.52-22.05-57.52-56.59s23.9-56.75 59.68-56.75c16.96 0 30.07 5.24 41.79 17.89l-17.43 16.81c-6.48-6.48-15.42-10.02-24.67-10.02-19.58 0-30.69 11.72-30.69 32.07 0 19.28 11.87 32.07 29.61 32.07 9.41 0 17.58-2.62 22.82-7.09v-13.72h-28.68v-22.51h52.74Zm9.09 11.26c0-34.54 23.29-56.75 59.52-56.75s59.52 22.21 59.52 56.75-23.29 56.75-59.52 56.75-59.52-22.21-59.52-56.75m89.75 0c0-18.81-11.87-31-30.22-31s-30.22 12.18-30.22 31 11.87 31 30.22 31 30.22-12.18 30.22-31m125.37-28.99h-31.77v82.96h-29.3v-82.96h-31.77v-24.98h92.83v24.98Zm76.48 65.07h-50.12l-7.25 17.89h-31.3l48.42-107.94h30.84l48.11 107.94h-31.61zm-24.98-62.61-15.27 37.93h30.22l-14.96-37.93Zm11.1-36.85h-24.36l11.72-22.82h30.53z" class="cls-65"/><path d="M194.47 99.61c-.99 0-1.97 1.58-5.32 6.3-8.08 11.23-22.46 29.16-28.76 29.16-3.15 0-5.52-2.56-5.52-7.68 0-8.27 2.36-14.58 16.75-44.13 3.94-8.08 6.3-10.84 6.3-14.97s-11.62-8.67-16.75-8.67c-2.76 0-4.73 3.94-7.29 10.44-6.7 16.94-17.34 34.48-17.34 50.83 0 14.97 12.41 24.82 23.44 24.82 13.2 0 26.79-17.93 34.28-27.78 4.14-5.32 4.93-7.68 4.93-10.64s-3.15-7.68-4.73-7.68Zm-12.28-43.63c.69-.69 1.15-1.79 1.29-2.75.49-3.28 3.33-4.99 4.3-8 2.08-6.48-1.78-11.91-6.79-15.52-1.48-1.07-3.39-2.64-5.33-2.57-2.89.11-2.52 4.28-3.23 6.19-1.56 4.2-5.66 6.13-5.4 11.18.18 3.41 2.36 5.71 3.65 7.07 2.15 2.26 5.36 4.94 8.58 5.36 1.21.16 2.2-.25 2.92-.97Z" class="cls-71"/><path d="M176.15 112.02c0-21.28 26.4-51.62 44.33-51.62 11.62 0 20.88 8.87 20.88 16.55 0 8.87-7.09 25.02-12.02 25.02s-9.46-4.92-9.46-6.3c0-.59.59-1.38 1.77-2.56 3.55-3.55 9.26-11.03 9.26-16.55 0-1.77-1.18-2.56-2.56-2.56-11.43 0-30.34 26.6-30.34 43.34 0 10.05 6.9 17.34 15.37 17.34 11.62 0 25.61-17.53 33.69-28.76 3.35-4.73 4.33-6.3 5.32-6.3 1.58 0 4.73 4.73 4.73 7.68s-.79 5.32-4.93 10.64c-7.49 9.85-21.67 27.78-39.8 27.78s-36.25-11.82-36.25-33.69Zm126.62-3.47c.04-.32 1.02-.15 1.61-.85.93-1.11-.45-2.83.08-3.76.97-1.7 6.54 1.78 11.23.71 4.67-1.07 6.94-6.3 11.42-16.61 3.6-8.29 5.42-12.44 4.82-17.79-.74-6.57-5.32-7.27-5.32-13.2s10.44-28.37 15.37-28.37 16.75 5.32 16.75 11.03-11.03 25.61-11.03 32.11 18.72 9.06 18.72 25.41c0 7.09-11.43 24.03-11.43 33.1 0 2.96 1.77 4.73 3.55 4.73 6.3 0 20.69-17.93 28.76-29.16 3.35-4.73 4.33-6.3 5.32-6.3 1.58 0 4.73 4.73 4.73 7.68s-.79 5.32-4.93 10.64c-7.49 9.85-20.88 27.58-34.08 27.58-8.87 0-22.06-9.26-22.06-23.05s11.03-29.16 11.03-34.48-6.7-8.87-6.7-8.87c-3.99 6.92-7.03 12.43-8.97 15.99-4.87 9.73-7.82 14.33-12.34 16-2.76 1.02-5.29.56-10.3-.34-3.44-.62-6.29-1.67-6.21-2.21Z" class="cls-71"/><path d="M373.89 113.79c0-20.49 24.43-51.81 38.61-51.81 9.46 0 24.23 8.67 24.23 17.14 0 6.5-5.91 19.5-16.35 29.55-8.27 8.08-25.22 8.47-25.22 8.47s-.39 2.17-.39 4.53c0 7.88 6.11 13.4 13 13.4 13.4 0 28.96-17.93 37.04-29.16 3.35-4.73 4.33-6.3 5.32-6.3 1.58 0 4.73 4.73 4.73 7.68s-.79 5.32-4.93 10.64c-7.49 9.85-23.84 28.37-44.52 28.37-14.18 0-31.52-12.21-31.52-32.51m49.45-32.9c0-1.18-.98-1.97-2.56-1.97-4.53 0-23.64 23.84-23.64 28.96 7.68 0 26.2-20.69 26.2-26.99" class="cls-71"/><path d="M449.57 99.64c5.53-7.02 10.76-14.51 15.43-22.09 1.18-1.91 2.32-3.85 3.45-5.79 3.74-14.38 10.64-28.37 15.37-28.37 7.68 0 15.96 6.11 15.96 12.41 0 4.73-8.47 14.78-15.17 23.44 0 15.76 11.82 18.12 11.82 40.58 0 3.15-1.38 7.09-1.38 7.09 9.26-5.71 16.75-13.59 21.47-20.09 3.35-4.73 4.33-6.3 5.32-6.3 1.58 0 4.73 4.73 4.73 7.68s-.99 4.93-5.12 10.64c-11.62 15.96-31.92 28.17-53.59 28.17s-42.77-13-37.43-21.28c5.43-8.41 11.49-16.56 17.76-24.36.46-.58.92-1.15 1.38-1.74Zm11.99 34.77c7.29 0 12.41-9.46 12.41-21.47s-1.38-28.37-1.38-28.37c-6.9 10.84-15.17 23.25-24.82 36.45 0 4.33 7.09 13.4 13.79 13.4ZM154.5 28.09c.46 1.55-1.21 3.02-2.12 4.04-6.36 7.16-8.47 16.29-11.39 25.15-7.1 21.58-10.36 46.35-24.8 64.8-.08.1-.15.2-.23.29-3.41 4.31-6.7 7.53-9.1 9.67 7.81 6.52 14.88 11.24 20.37 14.55 6.92 4.18 12.89 7.05 15.72 8.41 4.01 1.93 7.19 3.28 9.19 4.13 27.15 11.44 40.73 17.16 54.61 17.97 6.49.38 16.09.09 27.93-3.54.1-.03.51 4.51.51 4.86.01 17.05-19.01 21.83-32.71 19.1-11.91-2.38-22.95-9.17-33.33-15.15-15.04-8.66-29.38-18.52-43.33-28.83-3.79-2.8-7.54-5.64-11.27-8.51-1.06-.81-10.89-9.22-11.33-8.9-10.58 7.62-20.25 10.77-26.26 12.2-3.14.75-24.21 5.76-29.49-2.08-1.28-1.91-1.63-4.51-1.66-4.76-.65-5.18 2.39-9.25 3.12-10.31 3.44-4.97 9.9-8.59 20.2-8.59 9.17 0 6.7-.76 18.01 1.59 8.8-23.05 16.88-46.33 24.81-69.69 1.77-7.08 5.43-14.44 9.5-20.45 7.14-10.54 17.86-12.48 29.44-8.31 2.54.92 3.35 1.5 3.6 2.35Z" class="cls-71"/></g><g id="copa"><path d="M778.42 27.14c-.92 6 4.21 12.53 2.6 18.39-.28 1.02-13.14 10.44-16.12 13.77-13.57 15.14-23.85 33.23-29.88 52.64-5.66 18.23-7.53 37.88-3.67 56.67 3.97 19.29 14.18 36.66 29 49.62l.04.04c8.04 7.02 17.14 12.88 27.11 16.75 8.86 3.44 18.3 5.24 27.8 5.31 9.33.07 18.63-1.51 27.52-4.3 9.22-2.9 18-7.07 26.25-12.09 8.57-5.21 16.58-11.32 24-18.05 7.52-6.81 14.46-14.26 20.78-22.19 6.15-7.72 11.72-15.91 16.57-24.51.99-1.75 1.92-3.54 2.71-5.39.83-1.93 1.05-4.51 2.42-6.15 1.19-1.41 3.27-1.88 5.01-2.12-3.91 49.11-46.33 89.15-91.41 103.54-35.01 11.18-54.22 2.7-76.92 9.81-5.3 1.66-12.79 4.88-20.86 10.8-12.4 9.1-19.97 23.14-27.91 35.98-8.8 14.22-16.79 28.92-24.57 43.72-3.89 7.4-7.73 14.83-11.6 22.25-3.28 6.29-8.33 13.19-7.49 20.65.44 3.94 3.55 6.95 6.33 9.46 3.75 3.37 7.89 6.28 11.48 9.84 3.07 3.04 9.31 9.36 9.31 14.04 1.38 3.91 1.03 5.3.82 5.91-2.97 8.66-28.19 9.2-47.1 4.16-10.38-2.77-18-7-22.16-9.58-18.6-11.57-36.69-33-31.52-42.63 1.03-1.92 2.68-2.8 4.69-3.84 16.47-8.53 34.33 9.62 47.83 1.65 9.85-5.82 15.62-20.72 21.73-30.01 8.96-13.62 17.77-27.35 26.22-41.3 12.57-20.74 27-43 29.57-67.7 2.39-22.96-12.55-43.39-18.16-64.88-2.92-11.18-4.57-22.7-4.59-34.26-.02-10.78 1.4-21.55 4.2-31.96 2.79-10.35 6.93-20.31 12.08-29.71 5.38-9.84 11.85-19.06 18.98-27.7 4.19-5.07 8.58-10.03 13.17-14.75 2.84-2.92 5.79-5.82 9.08-8.24.85-.63 1.73-1.21 2.65-1.73.87-.49 2.23-1.21 3.97-1.94Z" style="fill:#a9cc48"/><path d="M893.05 148.26v17.58h-9.14v22.33h-19.34v-22.33h-36.92v-17.58l9.92-23.47c-10.69.42-20.72 2.56-31.14 2.83-3.08 4.12-6.82 8.5-11.31 13.26-11.6 12.31-14.59 18.46-14.59 27.08v2.64h36.75v17.58h-55.91v-13.36c0-17.58 4.92-28.31 19.34-43.43 2.09-2.22 3.95-4.29 5.63-6.28-3.16-.96-6.4-2.23-9.74-3.91-17.87-8.97-21.66-17.45-26.58-16.62-10.54 1.78-22.61 47.68-3.16 84.82 3.03 5.78 15.19 28.16 42.17 38.66 14.17 5.51 29.63 6.4 44.48 3.43 1.94-.39 7.41-1.43 14.21-3.86 3.85-1.37 13.81-5.21 28.11-15.73 0 0 22.65-16.67 44.88-51.74.85-1.35.84-1.72 1.92-4.43.55-1.36.39-2.64.39-2.64-.05-.51-.22-1.05-.54-1.68-1.99-3.9-30.68-12.85-38.57-16.47v13.31h9.14Z" class="cls-65"/><path d="M864.57 148.26v-19.94c-3.63-1-7.23-1.86-10.48-2.45l-8.86 22.39z" class="cls-65"/><path d="M806.44 127.62c9.24-12.35 12.6-22.4 12.6-33.33 0-19.69-9.85-30.94-28.83-30.94s-28.83 11.25-28.83 30.94v11.96h18.28V93.06c0-8.79 3.87-12.13 10.02-12.13S799.7 83.92 799.7 95c0 9.81-3.13 18.08-13.35 30.12 7.02 2.13 13.63 2.69 20.1 2.52Zm45.94-2.04c.56.09 1.13.19 1.71.29l10.13-25.61h.35v28.06c5.98 1.64 12.06 3.67 16.93 5.58.61.24 1.44.6 2.41 1.04V65.09h-21.1l-25.24 59.69c4.77-.19 9.67-.03 14.8.79Z" class="cls-71"/></g></svg>