<svg xmlns="http://www.w3.org/2000/svg" id="Layer_1" data-name="Layer 1" viewBox="0 0 2085.2 1284.77"><defs><style>.cls-3{fill-rule:evenodd;fill:#cc2131}</style></defs><path d="M1049.11 1091.2c127.58-116.38 200.14-281.19 199.82-453.89.32-172.69-72.24-337.49-199.82-453.89-107.88-98.48-251-158.5-408.05-158.5-335.72 0-607.87 274.17-607.87 612.39s272.17 612.39 607.86 612.39c157.06 0 300.19-60.01 408.05-158.5Z" style="fill:#3a9bd9;fill-rule:evenodd"/><path d="M1457.16 24.93c-157.06 0-300.19 60.01-408.05 158.5-22 20.1-42.51 41.77-61.37 64.83h122.7a615 615 0 0 1 46.38 64.84H941.4a617 617 0 0 0-35.05 64.84h285.46c9.83 21.1 18.44 42.75 25.79 64.83H880.62a614 614 0 0 0-17.65 64.83h372.3a618.4 618.4 0 0 1 13.68 129.69c0 67.99-11.03 133.4-31.33 194.5h-337a603 603 0 0 0 25.74 64.84h285.46a612 612 0 0 1-35 64.84H941.41a613 613 0 0 0 46.33 64.84h122.71a610 610 0 0 1-61.33 64.84c107.87 98.48 251 158.5 408.05 158.5 335.69 0 607.86-274.17 607.86-612.39S1792.86 24.89 1457.16 24.89z" class="cls-3"/><path d="M1984.08 978.68c0-10.92 8.79-19.78 19.64-19.78s19.63 8.86 19.63 19.78-8.79 19.77-19.63 19.77c-10.88-.04-19.67-8.89-19.64-19.77m19.64 15c8.24 0 14.91-6.7 14.91-15.02s-6.67-15.05-14.91-15.05-14.94 6.73-14.94 15.05 6.69 15.02 14.94 15.02m-2.66-6.34h-4.03v-17.4h7.3c1.51 0 3.05.04 4.39.89 1.41 1 2.23 2.62 2.2 4.35 0 1.95-1.14 3.81-2.99 4.5l3.18 7.66h-4.47l-2.63-6.88h-2.95zv-9.84h2.23c.8 0 1.72.04 2.45-.36.65-.46 1.04-1.2 1.02-1.99-.03-.71-.39-1.36-.98-1.76-.69-.43-1.83-.32-2.59-.32h-2.12v14.27h-.03.01Z" class="cls-3"/><path d="M1855.54 770.04c0-10.92 8.79-19.78 19.63-19.78s19.63 8.86 19.63 19.78-8.79 19.77-19.63 19.77-19.63-8.85-19.63-19.77m19.62 15c8.24 0 14.91-6.73 14.91-15.02s-6.67-15.05-14.91-15.05-14.91 6.73-14.91 15.05 6.67 15.02 14.91 15.02m-2.66-6.34h-4.03v-17.37h7.3c1.51 0 3.07.03 4.39.89 1.41.98 2.23 2.6 2.2 4.32 0 1.98-1.14 3.81-2.99 4.5l3.18 7.66h-4.46l-2.64-6.88h-2.95zv-9.84h2.23c.83 0 1.74.07 2.45-.33.65-.46 1.02-1.2 1.02-1.99-.01-.72-.37-1.38-.98-1.79-.69-.4-1.83-.32-2.56-.32h-2.15v14.27h-.03.01ZM565.12 789.81h-75.66l44.96-238.66L430.9 789.81h-68.98l-12.61-237.29-45.1 237.29h-68.66l58.68-310.46h118.06l6.24 192.2 83.23-192.2h123.01l-59.64 310.46zm845.49-3.1c-20.7 5.72-36.88 8.2-54.36 8.2-38.71 0-59.85-19.56-59.85-55.44 0-7.1.78-14.66 2.23-22.65l4.61-24.68 3.54-19.98 35.07-192.8h75.24l-10.91 57.98h38.61l-10.37 61.38h-38.78l-19.93 105.35c-.73 3.45-1.18 6.94-1.29 10.45 0 13.04 7.84 18.72 25.82 18.72 8.61 0 15.3-.78 20.41-2.35l-10.02 55.86v-.03Zm220.95-247.32c-6.34-2.52-7.84-2.52-8.57-2.73-4-.89-6.15-1.41-6.52-1.48-2.52-.44-5.07-.65-7.61-.62-24.84 0-42.75 11.14-65.9 40.99l6.67-38.26h-68.51l-46.11 252.51h75.71c27.09-154.43 38.68-181.46 75-181.46 2.74 0 5.9.22 9.57.64l8.85 1.81 27.44-71.39h-.01Zm-520.86 77.69c0 31.9 17.84 53.87 58.28 70.38 31 12.68 35.79 16.4 35.79 27.87 0 15.71-13.66 22.8-43.93 22.8-22.86 0-44.08-3.1-68.6-10l-10.51 58.24 3.39.58 14.02 2.59c4.51.78 11.17 1.54 20 2.2 18.2 1.43 32.28 2.09 42.21 2.09 80.76 0 118.06-26.66 118.06-84.25 0-34.65-15.6-54.97-53.95-70.27-32.09-12.78-35.8-15.62-35.8-27.4 0-13.61 12.72-20.6 37.46-20.6 15.05 0 35.55 1.43 55 3.79l10.91-58.45c-19.81-2.71-49.86-4.94-67.35-4.94-85.62 0-115.26 38.8-115 85.37ZM811.05 789.81h-62.86l1.47-26.18c-19.15 20.72-44.67 30.54-79.35 30.54-40.99 0-69.14-28.13-69.14-68.97 0-61.51 48.88-97.36 132.9-97.36 8.61 0 19.55.68 30.82 1.94 2.34-8.29 2.99-11.88 2.99-16.4 0-16.71-13.19-22.97-48.52-22.97-21.6 0-46.02 2.74-62.86 7.03l-10.48 2.69-6.78 1.63 10.49-56.77c37.72-9.73 62.61-13.41 90.58-13.41 65.02 0 99.38 25.65 99.38 74.06 0 12.46-1.14 21.91-6.15 50.02l-15.81 89.58-2.66 16.07-1.94 12.83-1.29 8.79-.75 6.85zm-55.19-112.5a136 136 0 0 0-16.9-1.04c-42.87 0-64.59 12.92-64.59 38.42 0 15.71 10.6 25.75 27.13 25.75 30.84 0 53.06-25.78 54.36-63.13m303.38 107.04a293.7 293.7 0 0 1-77.52 10.24c-84.58-.07-128.66-38.86-128.66-113.12 0-86.67 56.08-150.49 132.21-150.49 62.28 0 102.06 35.74 102.06 91.78 0 18.61-2.71 36.74-9.29 62.34H927.62a48 48 0 0 0-.73 7.93c0 29.27 22.43 44.2 66.37 44.2 27.02 0 51.44-4.94 78.56-15.98l-12.57 63.1h.01Zm-40.28-150.24c.42-5.26.62-9.55.62-12.87 0-20.5-13.26-32.53-35.79-32.53-24.06 0-41.28 16.14-48.26 45.27l83.42.15Zm847.78 41.21c-11.32 83.99-69.55 121.24-146.95 121.24-85.6 0-120.16-52.3-120.16-116.38 0-89.49 58.54-150.12 148.97-150.12 78.49 0 120.16 49.86 120.16 113.96 0 15.6-.03 16.63-2.02 31.31Zm-77.91-32.31c0-26.41-10.65-51.35-41.66-51.35-38.61 0-62.53 45.97-62.53 86.55 0 34.24 16.4 57.23 43.44 56.75 16.4 0 51.37-22.5 58.28-61.81 1.62-9.16 2.46-19.23 2.46-30.15Z" style="fill-rule:evenodd;fill:#fff"/></svg>