<?xml version="1.0" encoding="UTF-8"?>
<svg id="Layer_1" data-name="Layer 1" xmlns="http://www.w3.org/2000/svg" viewBox="0 0 2492.7 1605.45">
  <defs>
    <style>
      .cls-1 {
        fill: #315881;
      }

      .cls-1, .cls-2, .cls-3 {
        fill-rule: evenodd;
      }

      .cls-2 {
        fill: #fff;
      }

      .cls-3 {
        fill: #dfa43b;
      }
    </style>
  </defs>
  <path class="cls-1" d="M2285.18,42.79H214.81c-58.73,0-101.87,15.6-130.32,47.71-32.12,32.13-47.73,73.42-47.73,126.65v1182.04c0,53.23,15.61,93.6,47.73,126.64,33.04,32.12,75.26,47.72,130.32,47.72h2070.37c117.49,0,178.06-58.71,178.06-174.35V217.15c0-116.55-60.57-174.36-178.06-174.36ZM2432.03,1399.19c0,98.18-49.58,146.82-146.85,146.82H214.81c-46.81,0-82.6-13.76-109.21-41.3-27.53-26.63-41.3-63.33-41.3-105.53V217.15c0-97.27,48.64-146.83,150.51-146.83h2070.37c97.27,0,146.85,49.56,146.85,146.83v1182.04Z"/>
  <path class="cls-2" d="M2285.18,70.32H214.81c-101.87,0-150.51,49.56-150.51,146.83v1182.03c0,42.2,13.77,78.9,41.3,105.53,26.61,27.54,62.4,41.3,109.21,41.3h2070.37c97.27,0,146.85-48.64,146.85-146.82V217.15c0-97.27-49.58-146.83-146.85-146.83ZM2364.12,1375.32c0,67.9-33.06,102.78-99.13,102.78H231.32c-63.32,0-95.44-34.89-95.44-102.78v-256.04h2228.24v256.04ZM859.97,568.64h154.17l-301.02,465.31h-125.73l-23.85-362.52c0-25.71-12.86-45.89-37.63-61.49l-86.26-41.3h256.96l10.1,341.41,160.6-279.92c4.58-6.43,6.42-15.6,6.42-27.53,0-12.85-4.59-25.69-13.76-33.96ZM1048.1,568.64h167.95l-27.54,33.96-116.56,376.27c1.84,18.36,5.51,35.79,7.35,55.06v.02h-167.94l23.86-37.64,116.55-372.6c1.84-9.17,1.84-19.27,1.84-27.53-1.84-8.26-3.67-19.27-5.51-27.54ZM1362.89,848.54l-89.04-61.47c-29.36-28.44-44.04-66.07-44.04-109.21,0-37.64,20.18-67.92,61.49-91.78,37.62-27.53,79.85-41.3,129.4-41.3,55.06,0,105.53,13.76,154.19,41.31l-17.45,89.02c-57.81-34.87-100.95-51.4-130.31-51.4-43.14,0-64.24,18.37-64.24,54.15,0,15.59,15.61,35.79,44.03,58.73l85.37,61.49c33.03,32.13,47.73,62.4,47.73,95.46,0,39.46-20.18,75.23-61.48,105.53-1.81,1.55-3.63,3.06-5.46,4.53-36.11,28.88-77.73,42.31-126.34,43.16-1.65.03-3.3.04-4.97.04-55.96,0-113.79-18.36-173.44-54.16v-85.34c76.17,42.21,131.23,65.15,163.35,65.15,22.01,0,39.47-5.5,55.07-17.44.49-.37.97-.75,1.44-1.13,14.15-11.38,21.9-25.92,22.41-42.12.01-.57.02-1.14.02-1.71,0-18.37-15.61-38.55-47.73-61.51ZM1765.76,568.63h156.93l-10.08,13.78,47.7,416.65,23.87,34.87h-160.61l11.03-24.77c-1.83-26.62-5.5-62.42-11.03-105.56h-133.07l-27.53,51.4c-13.76,31.21-20.19,53.22-20.19,65.15l6.43,13.77h-129.4c6.41-7.35,11.93-13.79,17.43-21.13l228.52-416.64c1.81-5.5,5.48-10.1,7.34-17.43,0-1.83-1.85-4.59-7.34-10.09ZM2364.12,493.38H135.88V237.34c0-37.62,5.5-63.31,17.44-78.92,13.76-13.77,38.54-20.19,78-20.19h2033.67c66.07,0,99.13,32.13,99.13,99.11v256.04Z"/>
  <path class="cls-1" d="M2364.12,237.34v256.04H135.88V237.34c0-37.62,5.5-63.31,17.44-78.92,13.76-13.77,38.54-20.19,78-20.19h2033.67c66.07,0,99.13,32.13,99.13,99.11h0Z"/>
  <path class="cls-3" d="M2364.12,1119.28v256.04c0,67.9-33.06,102.78-99.13,102.78H231.32c-63.32,0-95.44-34.89-95.44-102.78v-256.04h2228.24Z"/>
  <path class="cls-1" d="M859.97,568.64c9.17,8.27,13.76,21.11,13.76,33.96,0,11.93-1.84,21.1-6.42,27.53l-160.6,279.92-10.1-341.41h-256.96l86.26,41.3c24.77,15.6,37.63,35.78,37.63,61.49l23.85,362.52h125.73l301.02-465.31h-154.17ZM1984.18,1033.93l-23.87-34.87-47.7-416.65,10.08-13.78h-156.93c5.49,5.5,7.34,8.26,7.34,10.09-1.86,7.33-5.53,11.93-7.34,17.43l-228.52,416.64c-5.5,7.34-11.02,13.78-17.43,21.13h129.4l-6.43-13.77c0-11.93,6.43-33.94,20.19-65.15l27.53-51.4h133.07c5.53,43.14,9.2,78.94,11.03,105.56l-11.03,24.77h160.61ZM1721.71,838.45l81.67-156.93,13.77,156.93h-95.44ZM1427.13,623.71c29.36,0,72.5,16.53,130.31,51.4l17.45-89.02c-48.66-27.55-99.13-41.31-154.19-41.31-49.55,0-91.78,13.77-129.4,41.3-41.31,23.86-61.49,54.14-61.49,91.78,0,43.14,14.68,80.77,44.04,109.21l89.04,61.47c32.12,22.96,47.73,43.14,47.73,61.51,0,.57-.01,1.14-.02,1.71-.49,17.01-8.23,30.78-22.41,42.12-.47.38-.95.76-1.44,1.13-15.6,11.94-33.06,17.44-55.07,17.44-32.12,0-87.18-22.94-163.35-65.15v85.34c59.65,35.8,117.48,54.16,173.44,54.16,1.67,0,3.32-.01,4.97-.04,50.92-.81,90.4-14.24,126.34-43.16,1.83-1.47,3.65-2.98,5.46-4.53,41.3-30.3,61.48-66.07,61.48-105.53,0-33.06-14.7-63.33-47.73-95.46l-85.37-61.49c-28.42-22.94-44.03-43.14-44.03-58.73,0-35.78,21.1-54.15,64.24-54.15ZM1216.05,568.64h-167.95c1.84,8.27,3.67,19.28,5.51,27.54,0,8.26,0,18.36-1.84,27.53l-116.55,372.6-23.86,37.64h167.94v-.02c-1.84-19.27-5.51-36.7-7.35-55.06l116.56-376.27,27.54-33.96Z"/>
  <polygon class="cls-2" points="1817.15 838.45 1721.71 838.45 1803.38 681.52 1817.15 838.45"/>
</svg>